# https://github.com/mikedh/trimesh
v 42.42640686 42.42640686 0.00000000
v 36.52568436 47.60120010 0.00000000
v 45.62979889 170.29272461 0.00000000
v 60.00000000 0.00000000 0.00000000
v 59.48669052 7.83157158 0.00000000
v 67.46708679 162.87995911 0.00000000
v 57.95555115 15.52914238 0.00000000
v 47.60120010 36.52568436 0.00000000
v 55.43277359 22.96100616 0.00000000
v 51.96152496 30.00000000 0.00000000
v 42.42640686 42.42640686 14.89999962
v 45.62979889 170.29272461 14.89999962
v 36.52568436 47.60120010 14.89999962
v 60.00000000 0.00000000 14.89999962
v 67.46708679 162.87995911 14.89999962
v 59.48669052 7.83157158 14.89999962
v 57.95555115 15.52914238 14.89999962
v 51.96152496 30.00000000 14.89999962
v 55.43277359 22.96100616 14.89999962
v 47.60120010 36.52568436 14.89999962
v 0.00000000 60.00000000 0.00000000
v 23.01176834 174.79173279 0.00000000
v 7.83157158 59.48669052 0.00000000
v 15.52914238 57.95555115 0.00000000
v 22.96100616 55.43277359 0.00000000
v 30.00000000 51.96152496 0.00000000
v 0.00000000 176.30000305 0.00000000
v 0.00000000 176.30000305 14.89999962
v 23.01176834 174.79173279 14.89999962
v 88.15000153 152.68028259 0.00000000
v 107.32463837 139.86819458 0.00000000
v 0.00000000 60.00000000 14.89999962
v 7.83157158 59.48669052 14.89999962
v 15.52914238 57.95555115 14.89999962
v 22.96100616 55.43277359 14.89999962
v 30.00000000 51.96152496 14.89999962
v 88.15000153 152.68028259 14.89999962
v 170.29272461 45.62979889 0.00000000
v 162.87995911 67.46708679 0.00000000
v 124.66292572 124.66292572 0.00000000
v 139.86819458 107.32463837 0.00000000
v 152.68028259 88.15000153 0.00000000
v 176.30000305 0.00000000 0.00000000
v 174.79173279 23.01176834 0.00000000
v 176.30000305 0.00000000 14.89999962
v 174.79173279 23.01176834 14.89999962
v 170.29272461 45.62979889 14.89999962
v 162.87995911 67.46708679 14.89999962
v 152.68028259 88.15000153 14.89999962
v 124.66292572 124.66292572 14.89999962
v 139.86819458 107.32463837 14.89999962
v 107.32463837 139.86819458 14.89999962
f 1 2 3
f 4 5 6
f 5 7 6
f 1 6 8
f 7 9 6
f 10 8 6
f 10 6 9
f 11 12 13
f 14 15 16
f 16 15 17
f 18 19 12
f 18 12 20
f 11 20 12
f 17 15 19
f 21 22 23
f 23 22 24
f 24 22 25
f 26 25 3
f 26 3 2
f 21 27 22
f 25 22 3
f 27 28 22
f 22 29 3
f 1 3 6
f 6 30 4
f 30 31 4
f 3 12 6
f 6 15 30
f 32 33 28
f 33 34 29
f 34 35 29
f 36 29 35
f 36 13 29
f 13 12 29
f 22 28 29
f 3 29 12
f 33 29 28
f 19 15 12
f 6 12 15
f 30 15 37
f 38 4 39
f 40 41 4
f 41 42 4
f 39 4 42
f 43 4 44
f 44 4 38
f 43 44 45
f 44 38 46
f 38 39 47
f 39 42 48
f 14 45 15
f 44 46 45
f 38 47 46
f 46 47 45
f 47 48 45
f 39 48 47
f 42 49 48
f 50 45 51
f 48 49 45
f 51 45 49
f 40 4 31
f 30 37 31
f 40 31 52
f 41 49 42
f 40 51 41
f 40 52 50
f 40 50 51
f 15 45 37
f 37 45 52
f 31 37 52
f 41 51 49
f 50 52 45
f 21 23 33
f 23 24 34
f 24 25 35
f 26 36 25
f 26 2 13
f 1 11 2
f 4 14 5
f 5 16 7
f 7 17 9
f 10 9 19
f 10 18 8
f 1 8 20
f 21 33 32
f 23 34 33
f 24 35 34
f 25 36 35
f 26 13 36
f 2 11 13
f 5 14 16
f 7 16 17
f 9 17 19
f 10 19 18
f 8 18 20
f 1 20 11
f 27 21 28
f 32 28 21
f 4 43 14
f 45 14 43

