# https://github.com/mikedh/trimesh
v 11.69027901 -20.41827202 -37.00000000
v 6.12841034 -25.14999962 -37.00000000
v 7.86046124 -26.14999962 -37.00000000
v 10.10357189 -19.20075035 -37.00000000
v 14.82125950 -13.82125950 -37.00000000
v 10.10357189 -19.20075035 -45.00000000
v 6.12841034 -25.14999962 -45.00000000
v 20.20075035 -9.10357189 -37.00000000
v 21.41827202 -10.69027901 -37.00000000
v 27.14999962 -6.86046124 -37.00000000
v 26.14999962 -5.12841034 -37.00000000
v 20.20075035 -9.10357189 -45.00000000
v 26.14999962 -5.12841034 -45.00000000
v 16.23547173 -15.23547268 -37.00000000
v 14.82125950 -13.82125950 -45.00000000
v 2.96378946 -31.56721687 -37.00000000
v 4.81154871 -32.33258438 -37.00000000
v 0.66385728 -38.34259796 -37.00000000
v 2.59570885 -38.86023712 -37.00000000
v 2.96378946 -31.56721687 -45.00000000
v 0.66385728 -38.34259796 -45.00000000
v 1.25085580 -45.62126923 -37.00000000
v 0.80000001 -52.50000000 -37.00000000
v -0.73203391 -45.36021805 -37.00000000
v 0.66385728 -66.65740204 -37.00000000
v -0.73203391 -45.36021805 -45.00000000
v -1.20000005 -52.50000000 -45.00000000
v -1.20000005 -52.50000000 -37.00000000
v 32.56721497 -1.96378958 -37.00000000
v 33.33258438 -3.81154871 -37.00000000
v 39.86023712 -1.59570897 -37.00000000
v 39.34259796 0.33614269 -37.00000000
v 32.56721497 -1.96378958 -45.00000000
v 39.34259796 0.33614269 -45.00000000
v 46.62126923 -0.25085580 -37.00000000
v 46.36021805 1.73203397 -37.00000000
v 53.50000000 0.20000000 -37.00000000
v 53.50000000 2.20000005 -37.00000000
v 46.36021805 1.73203397 -45.00000000
v 53.50000000 2.20000005 -45.00000000
v 11.69027901 -20.41827202 -45.00000000
v 7.86046124 -26.14999962 -45.00000000
v 21.41827202 -10.69027901 -45.00000000
v 27.14999962 -6.86046124 -45.00000000
v 16.23547173 -15.23547268 -45.00000000
v 4.81154871 -32.33258438 -45.00000000
v 1.25085580 -45.62126923 -45.00000000
v 2.59570885 -38.86023712 -45.00000000
v 0.80000001 -52.50000000 -45.00000000
v -0.73203391 -59.63978195 -45.00000000
v 33.33258438 -3.81154871 -45.00000000
v 39.86023712 -1.59570897 -45.00000000
v 46.62126923 -0.25085580 -45.00000000
v 53.50000000 0.20000000 -45.00000000
v -0.73203391 -59.63978195 -37.00000000
v 1.25085580 -59.37873077 -37.00000000
v 0.66385728 -66.65740204 -45.00000000
v 2.96378946 -73.43278503 -37.00000000
v 2.59570885 -66.13976288 -37.00000000
v 4.81154871 -72.66741943 -37.00000000
v 6.12841034 -79.84999847 -37.00000000
v 7.86046124 -78.84999847 -37.00000000
v 2.96378946 -73.43278503 -45.00000000
v 6.12841034 -79.84999847 -45.00000000
v 10.10357189 -85.79924774 -37.00000000
v 11.69027901 -84.58172607 -37.00000000
v 14.82125950 -91.17874146 -37.00000000
v 10.10357189 -85.79924774 -45.00000000
v 16.23547173 -89.76452637 -37.00000000
v 20.20075035 -95.89643097 -37.00000000
v 21.41827202 -94.30972290 -37.00000000
v 14.82125950 -91.17874146 -45.00000000
v 26.14999962 -99.87158966 -37.00000000
v 27.14999962 -98.13954163 -37.00000000
v 20.20075035 -95.89643097 -45.00000000
v 26.14999962 -99.87158966 -45.00000000
v 32.56721497 -103.03620911 -37.00000000
v 33.33258438 -101.18845367 -37.00000000
v 39.34259796 -105.33614349 -37.00000000
v 39.86023712 -103.40428925 -37.00000000
v 32.56721497 -103.03620911 -45.00000000
v 46.36021805 -106.73203278 -37.00000000
v 46.62126923 -104.74914551 -37.00000000
v 53.50000000 -107.19999695 -37.00000000
v 53.50000000 -105.19999695 -37.00000000
v 39.34259796 -105.33614349 -45.00000000
v 46.36021805 -106.73203278 -45.00000000
v 53.50000000 -107.19999695 -45.00000000
v 1.25085580 -59.37873077 -45.00000000
v 2.59570885 -66.13976288 -45.00000000
v 4.81154871 -72.66741943 -45.00000000
v 7.86046124 -78.84999847 -45.00000000
v 11.69027901 -84.58172607 -45.00000000
v 16.23547173 -89.76452637 -45.00000000
v 21.41827202 -94.30972290 -45.00000000
v 27.14999962 -98.13954163 -45.00000000
v 33.33258438 -101.18845367 -45.00000000
v 39.86023712 -103.40428925 -45.00000000
v 46.62126923 -104.74914551 -45.00000000
v 53.50000000 -105.19999695 -45.00000000
v 60.37873077 -0.25085580 -37.00000000
v 60.63978195 1.73203397 -37.00000000
v 67.13976288 -1.59570897 -37.00000000
v 67.65740204 0.33614269 -37.00000000
v 60.63978195 1.73203397 -45.00000000
v 67.65740204 0.33614269 -45.00000000
v 73.66741943 -3.81154871 -37.00000000
v 74.43278503 -1.96378958 -37.00000000
v 79.84999847 -6.86046124 -37.00000000
v 80.84999847 -5.12841034 -37.00000000
v 74.43278503 -1.96378958 -45.00000000
v 80.84999847 -5.12841034 -45.00000000
v 85.58172607 -10.69027901 -37.00000000
v 86.79924774 -9.10357189 -37.00000000
v 86.79924774 -9.10357189 -45.00000000
v 90.76452637 -15.23547268 -37.00000000
v 92.17874146 -13.82125950 -37.00000000
v 95.30972290 -20.41827202 -37.00000000
v 92.17874146 -13.82125950 -45.00000000
v 96.89643097 -19.20075035 -37.00000000
v 99.13954163 -26.14999962 -37.00000000
v 100.87158966 -25.14999962 -37.00000000
v 96.89643097 -19.20075035 -45.00000000
v 100.87158966 -25.14999962 -45.00000000
v 102.18845367 -32.33258438 -37.00000000
v 104.03620911 -31.56721687 -37.00000000
v 104.40428925 -38.86023712 -37.00000000
v 105.74914551 -45.62126923 -37.00000000
v 106.33614349 -38.34259796 -37.00000000
v 104.03620911 -31.56721687 -45.00000000
v 106.19999695 -52.50000000 -37.00000000
v 107.73203278 -59.63978195 -37.00000000
v 107.73203278 -45.36021805 -37.00000000
v 106.33614349 -38.34259796 -45.00000000
v 108.19999695 -52.50000000 -37.00000000
v 107.73203278 -45.36021805 -45.00000000
v 108.19999695 -52.50000000 -45.00000000
v 60.37873077 -0.25085580 -45.00000000
v 67.13976288 -1.59570897 -45.00000000
v 73.66741943 -3.81154871 -45.00000000
v 79.84999847 -6.86046124 -45.00000000
v 85.58172607 -10.69027901 -45.00000000
v 90.76452637 -15.23547268 -45.00000000
v 95.30972290 -20.41827202 -45.00000000
v 99.13954163 -26.14999962 -45.00000000
v 102.18845367 -32.33258438 -45.00000000
v 104.40428925 -38.86023712 -45.00000000
v 105.74914551 -45.62126923 -45.00000000
v 106.19999695 -52.50000000 -45.00000000
v 106.33614349 -66.65740204 -45.00000000
v 60.63978195 -106.73203278 -37.00000000
v 60.37873077 -104.74914551 -37.00000000
v 67.65740204 -105.33614349 -37.00000000
v 67.13976288 -103.40428925 -37.00000000
v 60.63978195 -106.73203278 -45.00000000
v 74.43278503 -103.03620911 -37.00000000
v 73.66741943 -101.18845367 -37.00000000
v 80.84999847 -99.87158966 -37.00000000
v 79.84999847 -98.13954163 -37.00000000
v 67.65740204 -105.33614349 -45.00000000
v 74.43278503 -103.03620911 -45.00000000
v 80.84999847 -99.87158966 -45.00000000
v 106.33614349 -66.65740204 -37.00000000
v 105.74914551 -59.37873077 -37.00000000
v 104.40428925 -66.13976288 -37.00000000
v 107.73203278 -59.63978195 -45.00000000
v 99.13954163 -78.84999847 -37.00000000
v 100.87158966 -79.84999847 -37.00000000
v 104.03620911 -73.43278503 -37.00000000
v 102.18845367 -72.66741943 -37.00000000
v 104.03620911 -73.43278503 -45.00000000
v 100.87158966 -79.84999847 -45.00000000
v 90.76452637 -89.76452637 -37.00000000
v 85.58172607 -94.30972290 -37.00000000
v 92.17874146 -91.17874146 -37.00000000
v 96.89643097 -85.79924774 -37.00000000
v 95.30972290 -84.58172607 -37.00000000
v 86.79924774 -95.89643097 -37.00000000
v 86.79924774 -95.89643097 -45.00000000
v 96.89643097 -85.79924774 -45.00000000
v 92.17874146 -91.17874146 -45.00000000
v 60.37873077 -104.74914551 -45.00000000
v 67.13976288 -103.40428925 -45.00000000
v 73.66741943 -101.18845367 -45.00000000
v 79.84999847 -98.13954163 -45.00000000
v 105.74914551 -59.37873077 -45.00000000
v 99.13954163 -78.84999847 -45.00000000
v 102.18845367 -72.66741943 -45.00000000
v 104.40428925 -66.13976288 -45.00000000
v 90.76452637 -89.76452637 -45.00000000
v 85.58172607 -94.30972290 -45.00000000
v 95.30972290 -84.58172607 -45.00000000
v 11.84894943 -20.54002571 -45.00000000
v 8.03366661 -26.25000000 -49.00000000
v 8.03366661 -26.25000000 -45.00000000
v 11.84894943 -20.54002571 -49.00000000
v 21.54002571 -10.84894943 -45.00000000
v 27.25000000 -7.03366613 -45.00000000
v 27.25000000 -7.03366613 -49.00000000
v 21.54002571 -10.84894943 -49.00000000
v 16.37689400 -15.37689400 -45.00000000
v 16.37689400 -15.37689400 -49.00000000
v 4.99632454 -32.40911865 -45.00000000
v 6.84870052 -51.46510696 -45.00000000
v 2.78889418 -38.91199875 -45.00000000
v 5.06000757 -50.85792542 -45.00000000
v 5.27810526 -50.81454468 -45.00000000
v 5.50000000 -50.79999924 -45.00000000
v 5.72189474 -50.81454468 -45.00000000
v 5.93999243 -50.85792542 -45.00000000
v 4.02775669 -51.65000153 -45.00000000
v 4.15129948 -51.46510696 -45.00000000
v 4.29791832 -51.29792023 -45.00000000
v 4.46510553 -51.15129852 -45.00000000
v 3.81454372 -52.27810669 -45.00000000
v 3.85792613 -52.06000900 -45.00000000
v 3.79999995 -52.50000000 -45.00000000
v 3.92940474 -51.84943771 -45.00000000
v 4.84943819 -50.92940521 -45.00000000
v 4.65000010 -51.02775574 -45.00000000
v 1.44914472 -45.64737320 -45.00000000
v 2.78889418 -66.08799744 -45.00000000
v 6.97224331 -51.65000153 -45.00000000
v 6.15056181 -50.92940521 -45.00000000
v 6.34999990 -51.02775574 -45.00000000
v 6.53489447 -51.15129852 -45.00000000
v 6.70208168 -51.29792023 -45.00000000
v 7.07059526 -51.84943771 -45.00000000
v 7.14207411 -52.06000900 -45.00000000
v 7.18545628 -52.27810669 -45.00000000
v 7.19999981 -52.50000000 -45.00000000
v 11.84894943 -84.45997620 -45.00000000
v 27.25000000 -97.96633148 -45.00000000
v 16.37689400 -89.62310791 -45.00000000
v 21.54002571 -94.15104675 -45.00000000
v 2.78889418 -38.91199875 -49.00000000
v 4.99632454 -32.40911865 -49.00000000
v 6.34999990 -51.02775574 -49.00000000
v 1.44914472 -45.64737320 -49.00000000
v 1.00000000 -52.50000000 -49.00000000
v 1.00000000 -52.50000000 -45.00000000
v 4.02775669 -51.65000153 -49.00000000
v 3.92940474 -51.84943771 -49.00000000
v 3.85792613 -52.06000900 -49.00000000
v 3.81454372 -52.27810669 -49.00000000
v 4.15129948 -51.46510696 -49.00000000
v 4.29791832 -51.29792023 -49.00000000
v 4.46510553 -51.15129852 -49.00000000
v 4.65000010 -51.02775574 -49.00000000
v 4.84943819 -50.92940521 -49.00000000
v 5.06000757 -50.85792542 -49.00000000
v 5.27810526 -50.81454468 -49.00000000
v 5.50000000 -50.79999924 -49.00000000
v 5.72189474 -50.81454468 -49.00000000
v 5.93999243 -50.85792542 -49.00000000
v 1.44914472 -59.35262680 -49.00000000
v 2.78889418 -66.08799744 -49.00000000
v 3.79999995 -52.50000000 -49.00000000
v 6.53489447 -51.15129852 -49.00000000
v 6.70208168 -51.29792023 -49.00000000
v 6.84870052 -51.46510696 -49.00000000
v 6.97224331 -51.65000153 -49.00000000
v 6.15056181 -50.92940521 -49.00000000
v 7.07059526 -51.84943771 -49.00000000
v 7.14207411 -52.06000900 -49.00000000
v 7.18545628 -52.27810669 -49.00000000
v 7.19999981 -52.50000000 -49.00000000
v 8.03366661 -78.75000000 -49.00000000
v 16.37689400 -89.62310791 -49.00000000
v 21.54002571 -94.15104675 -49.00000000
v 11.84894943 -84.45997620 -49.00000000
v 28.02775764 -10.08078098 -45.00000000
v 28.15129852 -9.89588642 -45.00000000
v 27.92940521 -10.28021908 -45.00000000
v 27.85792542 -10.49078846 -45.00000000
v 27.81454468 -10.70888615 -45.00000000
v 27.79999924 -10.93078041 -45.00000000
v 28.29791832 -9.72869873 -45.00000000
v 28.46510506 -9.58207989 -45.00000000
v 28.64999962 -9.45853710 -45.00000000
v 28.84943771 -9.36018562 -45.00000000
v 29.06000710 -9.28870678 -45.00000000
v 33.40911865 -3.99632454 -45.00000000
v 29.27810478 -9.24532413 -45.00000000
v 29.50000000 -9.23078060 -45.00000000
v 29.72189522 -9.24532413 -45.00000000
v 29.93999290 -9.28870678 -45.00000000
v 30.15056229 -9.36018562 -45.00000000
v 30.35000038 -9.45853710 -45.00000000
v 30.53489494 -9.58207989 -45.00000000
v 30.70208168 -9.72869873 -45.00000000
v 30.84870148 -9.89588642 -45.00000000
v 30.97224236 -10.08078098 -45.00000000
v 31.07059479 -10.28021908 -45.00000000
v 31.14207458 -10.49078846 -45.00000000
v 31.18545532 -10.70888615 -45.00000000
v 31.20000076 -10.93078041 -45.00000000
v 33.40911865 -3.99632454 -49.00000000
v 39.91199875 -1.78889418 -45.00000000
v 39.91199875 -1.78889418 -49.00000000
v 28.15129852 -9.89588642 -49.00000000
v 28.02775764 -10.08078098 -49.00000000
v 27.92940521 -10.28021908 -49.00000000
v 27.85792542 -10.49078846 -49.00000000
v 27.81454468 -10.70888615 -49.00000000
v 27.79999924 -10.93078041 -49.00000000
v 28.29791832 -9.72869873 -49.00000000
v 28.46510506 -9.58207989 -49.00000000
v 28.64999962 -9.45853710 -49.00000000
v 28.84943771 -9.36018562 -49.00000000
v 29.06000710 -9.28870678 -49.00000000
v 29.27810478 -9.24532413 -49.00000000
v 29.50000000 -9.23078060 -49.00000000
v 29.72189522 -9.24532413 -49.00000000
v 29.93999290 -9.28870678 -49.00000000
v 30.15056229 -9.36018562 -49.00000000
v 30.35000038 -9.45853710 -49.00000000
v 30.53489494 -9.58207989 -49.00000000
v 30.70208168 -9.72869873 -49.00000000
v 30.84870148 -9.89588642 -49.00000000
v 30.97224236 -10.08078098 -49.00000000
v 31.07059479 -10.28021908 -49.00000000
v 31.14207458 -10.49078846 -49.00000000
v 31.18545532 -10.70888615 -49.00000000
v 31.20000076 -10.93078041 -49.00000000
v 46.64737320 -0.44914478 -45.00000000
v 46.64737320 -0.44914478 -49.00000000
v 53.50000000 0.00000000 -45.00000000
v 53.50000000 0.00000000 -49.00000000
v 33.40911865 -101.00367737 -45.00000000
v 39.91199875 -103.21110535 -45.00000000
v 27.81454468 -11.15267467 -45.00000000
v 27.85792542 -11.37077332 -45.00000000
v 27.92940521 -11.58134270 -45.00000000
v 28.02775764 -11.78078079 -45.00000000
v 28.15129852 -11.96567535 -45.00000000
v 28.29791832 -12.13286209 -45.00000000
v 28.46510506 -12.27948093 -45.00000000
v 28.64999962 -12.40302372 -45.00000000
v 28.84943771 -12.50137615 -45.00000000
v 29.06000710 -12.57285500 -45.00000000
v 29.27810478 -12.61623669 -45.00000000
v 29.50000000 -12.63078022 -45.00000000
v 29.72189522 -12.61623669 -45.00000000
v 29.93999290 -12.57285500 -45.00000000
v 30.15056229 -12.50137615 -45.00000000
v 31.18545532 -11.15267467 -45.00000000
v 31.14207458 -11.37077332 -45.00000000
v 31.07059479 -11.58134270 -45.00000000
v 30.70208168 -12.13286209 -45.00000000
v 30.53489494 -12.27948093 -45.00000000
v 30.84870148 -11.96567535 -45.00000000
v 30.35000038 -12.40302372 -45.00000000
v 30.97224236 -11.78078079 -45.00000000
v 46.64737320 -104.55085754 -45.00000000
v 53.50000000 -105.00000000 -45.00000000
v 27.25000000 -97.96633148 -49.00000000
v 33.40911865 -101.00367737 -49.00000000
v 27.81454468 -11.15267467 -49.00000000
v 27.85792542 -11.37077332 -49.00000000
v 27.92940521 -11.58134270 -49.00000000
v 28.02775764 -11.78078079 -49.00000000
v 28.15129852 -11.96567535 -49.00000000
v 28.29791832 -12.13286209 -49.00000000
v 28.46510506 -12.27948093 -49.00000000
v 28.64999962 -12.40302372 -49.00000000
v 28.84943771 -12.50137615 -49.00000000
v 29.06000710 -12.57285500 -49.00000000
v 29.27810478 -12.61623669 -49.00000000
v 29.50000000 -12.63078022 -49.00000000
v 29.72189522 -12.61623669 -49.00000000
v 29.93999290 -12.57285500 -49.00000000
v 30.15056229 -12.50137615 -49.00000000
v 30.35000038 -12.40302372 -49.00000000
v 30.53489494 -12.27948093 -49.00000000
v 30.70208168 -12.13286209 -49.00000000
v 31.18545532 -11.15267467 -49.00000000
v 30.97224236 -11.78078079 -49.00000000
v 31.07059479 -11.58134270 -49.00000000
v 31.14207458 -11.37077332 -49.00000000
v 30.84870148 -11.96567535 -49.00000000
v 39.91199875 -103.21110535 -49.00000000
v 46.64737320 -104.55085754 -49.00000000
v 1.44914472 -59.35262680 -45.00000000
v 4.99632454 -72.59088135 -45.00000000
v 3.81454372 -52.72189331 -45.00000000
v 3.85792613 -52.93999100 -45.00000000
v 3.92940474 -53.15056229 -45.00000000
v 4.02775669 -53.34999847 -45.00000000
v 4.15129948 -53.53489304 -45.00000000
v 4.29791832 -53.70207977 -45.00000000
v 4.46510553 -53.84870148 -45.00000000
v 4.65000010 -53.97224426 -45.00000000
v 4.84943819 -54.07059479 -45.00000000
v 5.06000757 -54.14207458 -45.00000000
v 5.27810526 -54.18545532 -45.00000000
v 5.50000000 -54.20000076 -45.00000000
v 5.72189474 -54.18545532 -45.00000000
v 5.93999243 -54.14207458 -45.00000000
v 8.03366661 -78.75000000 -45.00000000
v 6.15056181 -54.07059479 -45.00000000
v 6.34999990 -53.97224426 -45.00000000
v 6.97224331 -53.34999847 -45.00000000
v 6.84870052 -53.53489304 -45.00000000
v 6.70208168 -53.70207977 -45.00000000
v 6.53489447 -53.84870148 -45.00000000
v 7.18545628 -52.72189331 -45.00000000
v 7.14207411 -52.93999100 -45.00000000
v 7.07059526 -53.15056229 -45.00000000
v 3.81454372 -52.72189331 -49.00000000
v 3.85792613 -52.93999100 -49.00000000
v 3.92940474 -53.15056229 -49.00000000
v 4.02775669 -53.34999847 -49.00000000
v 4.15129948 -53.53489304 -49.00000000
v 4.29791832 -53.70207977 -49.00000000
v 4.46510553 -53.84870148 -49.00000000
v 4.65000010 -53.97224426 -49.00000000
v 4.84943819 -54.07059479 -49.00000000
v 5.06000757 -54.14207458 -49.00000000
v 4.99632454 -72.59088135 -49.00000000
v 5.27810526 -54.18545532 -49.00000000
v 5.50000000 -54.20000076 -49.00000000
v 5.72189474 -54.18545532 -49.00000000
v 5.93999243 -54.14207458 -49.00000000
v 6.34999990 -53.97224426 -49.00000000
v 6.53489447 -53.84870148 -49.00000000
v 6.70208168 -53.70207977 -49.00000000
v 6.84870052 -53.53489304 -49.00000000
v 6.15056181 -54.07059479 -49.00000000
v 6.97224331 -53.34999847 -49.00000000
v 7.18545628 -52.72189331 -49.00000000
v 7.14207411 -52.93999100 -49.00000000
v 7.07059526 -53.15056229 -49.00000000
v 28.02775764 -93.21922302 -45.00000000
v 28.15129852 -93.03432465 -45.00000000
v 27.81454468 -93.84732819 -45.00000000
v 27.85792542 -93.62922668 -45.00000000
v 27.92940521 -93.41865540 -45.00000000
v 27.79999924 -94.06922150 -45.00000000
v 28.29791832 -92.86713409 -45.00000000
v 28.46510506 -92.72052002 -45.00000000
v 28.64999962 -92.59697723 -45.00000000
v 28.84943771 -92.49862671 -45.00000000
v 29.06000710 -92.42714691 -45.00000000
v 29.27810478 -92.38376617 -45.00000000
v 29.50000000 -92.36921692 -45.00000000
v 29.72189522 -92.38376617 -45.00000000
v 29.93999290 -92.42714691 -45.00000000
v 30.15056229 -92.49862671 -45.00000000
v 30.35000038 -92.59697723 -45.00000000
v 30.53489494 -92.72052002 -45.00000000
v 30.70208168 -92.86713409 -45.00000000
v 30.84870148 -93.03432465 -45.00000000
v 30.97224236 -93.21922302 -45.00000000
v 31.07059479 -93.41865540 -45.00000000
v 31.14207458 -93.62922668 -45.00000000
v 31.18545532 -93.84732819 -45.00000000
v 31.20000076 -94.06922150 -45.00000000
v 27.79999924 -94.06922150 -49.00000000
v 28.29791832 -92.86713409 -49.00000000
v 28.15129852 -93.03432465 -49.00000000
v 28.02775764 -93.21922302 -49.00000000
v 27.92940521 -93.41865540 -49.00000000
v 28.64999962 -92.59697723 -49.00000000
v 28.46510506 -92.72052002 -49.00000000
v 28.84943771 -92.49862671 -49.00000000
v 27.85792542 -93.62922668 -49.00000000
v 27.81454468 -93.84732819 -49.00000000
v 29.27810478 -92.38376617 -49.00000000
v 29.06000710 -92.42714691 -49.00000000
v 29.50000000 -92.36921692 -49.00000000
v 29.72189522 -92.38376617 -49.00000000
v 29.93999290 -92.42714691 -49.00000000
v 30.15056229 -92.49862671 -49.00000000
v 30.35000038 -92.59697723 -49.00000000
v 30.53489494 -92.72052002 -49.00000000
v 30.70208168 -92.86713409 -49.00000000
v 30.84870148 -93.03432465 -49.00000000
v 30.97224236 -93.21922302 -49.00000000
v 31.07059479 -93.41865540 -49.00000000
v 31.14207458 -93.62922668 -49.00000000
v 31.18545532 -93.84732819 -49.00000000
v 31.20000076 -94.06922150 -49.00000000
v 53.50000000 -105.00000000 -49.00000000
v 27.81454468 -94.29111481 -45.00000000
v 27.85792542 -94.50920868 -45.00000000
v 27.92940521 -94.71977997 -45.00000000
v 28.02775764 -94.91921997 -45.00000000
v 28.15129852 -95.10411072 -45.00000000
v 28.29791832 -95.27130127 -45.00000000
v 28.46510506 -95.41792297 -45.00000000
v 28.64999962 -95.54146576 -45.00000000
v 28.84943771 -95.63981628 -45.00000000
v 31.18545532 -94.29111481 -45.00000000
v 31.14207458 -94.50920868 -45.00000000
v 31.07059479 -94.71977997 -45.00000000
v 30.97224236 -94.91921997 -45.00000000
v 29.06000710 -95.71129608 -45.00000000
v 29.27810478 -95.75467682 -45.00000000
v 29.50000000 -95.76921844 -45.00000000
v 29.72189522 -95.75467682 -45.00000000
v 29.93999290 -95.71129608 -45.00000000
v 30.15056229 -95.63981628 -45.00000000
v 30.53489494 -95.41792297 -45.00000000
v 30.35000038 -95.54146576 -45.00000000
v 30.84870148 -95.10411072 -45.00000000
v 30.70208168 -95.27130127 -45.00000000
v 27.81454468 -94.29111481 -49.00000000
v 27.85792542 -94.50920868 -49.00000000
v 27.92940521 -94.71977997 -49.00000000
v 28.02775764 -94.91921997 -49.00000000
v 28.15129852 -95.10411072 -49.00000000
v 28.29791832 -95.27130127 -49.00000000
v 28.46510506 -95.41792297 -49.00000000
v 28.64999962 -95.54146576 -49.00000000
v 28.84943771 -95.63981628 -49.00000000
v 29.06000710 -95.71129608 -49.00000000
v 29.27810478 -95.75467682 -49.00000000
v 29.50000000 -95.76921844 -49.00000000
v 29.72189522 -95.75467682 -49.00000000
v 31.18545532 -94.29111481 -49.00000000
v 31.14207458 -94.50920868 -49.00000000
v 31.07059479 -94.71977997 -49.00000000
v 30.97224236 -94.91921997 -49.00000000
v 29.93999290 -95.71129608 -49.00000000
v 30.15056229 -95.63981628 -49.00000000
v 30.35000038 -95.54146576 -49.00000000
v 30.53489494 -95.41792297 -49.00000000
v 30.70208168 -95.27130127 -49.00000000
v 30.84870148 -95.10411072 -49.00000000
v 73.59088135 -3.99632454 -45.00000000
v 76.02775574 -10.08078098 -45.00000000
v 76.15129852 -9.89588642 -45.00000000
v 76.65000153 -9.45853710 -45.00000000
v 76.84944153 -9.36018562 -45.00000000
v 76.29792023 -9.72869873 -45.00000000
v 76.46510315 -9.58207989 -45.00000000
v 77.06000519 -9.28870678 -45.00000000
v 77.27810669 -9.24532413 -45.00000000
v 79.75000000 -7.03366613 -45.00000000
v 75.92940521 -10.28021908 -45.00000000
v 75.85792542 -10.49078846 -45.00000000
v 75.81454468 -10.70888615 -45.00000000
v 75.80000305 -10.93078041 -45.00000000
v 77.50000000 -9.23078060 -45.00000000
v 77.72189331 -9.24532413 -45.00000000
v 77.93999481 -9.28870678 -45.00000000
v 78.15055847 -9.36018562 -45.00000000
v 78.34999847 -9.45853710 -45.00000000
v 78.53489685 -9.58207989 -45.00000000
v 78.70207977 -9.72869873 -45.00000000
v 78.84870148 -9.89588642 -45.00000000
v 78.97224426 -10.08078098 -45.00000000
v 79.07059479 -10.28021908 -45.00000000
v 79.14207458 -10.49078846 -45.00000000
v 79.18545532 -10.70888615 -45.00000000
v 79.19999695 -10.93078041 -45.00000000
v 60.35262680 -0.44914478 -45.00000000
v 60.35262680 -0.44914478 -49.00000000
v 67.08799744 -1.78889418 -45.00000000
v 67.08799744 -1.78889418 -49.00000000
v 73.59088135 -3.99632454 -49.00000000
v 79.75000000 -7.03366613 -49.00000000
v 76.15129852 -9.89588642 -49.00000000
v 76.02775574 -10.08078098 -49.00000000
v 76.84944153 -9.36018562 -49.00000000
v 76.65000153 -9.45853710 -49.00000000
v 76.46510315 -9.58207989 -49.00000000
v 76.29792023 -9.72869873 -49.00000000
v 77.06000519 -9.28870678 -49.00000000
v 77.27810669 -9.24532413 -49.00000000
v 77.50000000 -9.23078060 -49.00000000
v 77.72189331 -9.24532413 -49.00000000
v 77.93999481 -9.28870678 -49.00000000
v 75.92940521 -10.28021908 -49.00000000
v 75.85792542 -10.49078846 -49.00000000
v 75.81454468 -10.70888615 -49.00000000
v 75.80000305 -10.93078041 -49.00000000
v 78.15055847 -9.36018562 -49.00000000
v 78.34999847 -9.45853710 -49.00000000
v 78.53489685 -9.58207989 -49.00000000
v 78.70207977 -9.72869873 -49.00000000
v 78.84870148 -9.89588642 -49.00000000
v 78.97224426 -10.08078098 -49.00000000
v 79.07059479 -10.28021908 -49.00000000
v 79.14207458 -10.49078846 -49.00000000
v 79.18545532 -10.70888615 -49.00000000
v 79.19999695 -10.93078041 -49.00000000
v 60.35262680 -104.55085754 -45.00000000
v 67.08799744 -103.21110535 -45.00000000
v 73.59088135 -101.00367737 -45.00000000
v 79.75000000 -97.96633148 -45.00000000
v 75.81454468 -11.15267467 -45.00000000
v 75.85792542 -11.37077332 -45.00000000
v 75.92940521 -11.58134270 -45.00000000
v 76.02775574 -11.78078079 -45.00000000
v 76.15129852 -11.96567535 -45.00000000
v 76.29792023 -12.13286209 -45.00000000
v 76.46510315 -12.27948093 -45.00000000
v 76.65000153 -12.40302372 -45.00000000
v 76.84944153 -12.50137615 -45.00000000
v 77.06000519 -12.57285500 -45.00000000
v 77.27810669 -12.61623669 -45.00000000
v 77.50000000 -12.63078022 -45.00000000
v 77.72189331 -12.61623669 -45.00000000
v 77.93999481 -12.57285500 -45.00000000
v 78.15055847 -12.50137615 -45.00000000
v 78.34999847 -12.40302372 -45.00000000
v 78.53489685 -12.27948093 -45.00000000
v 78.84870148 -11.96567535 -45.00000000
v 78.70207977 -12.13286209 -45.00000000
v 79.18545532 -11.15267467 -45.00000000
v 79.14207458 -11.37077332 -45.00000000
v 79.07059479 -11.58134270 -45.00000000
v 78.97224426 -11.78078079 -45.00000000
v 60.35262680 -104.55085754 -49.00000000
v 67.08799744 -103.21110535 -49.00000000
v 73.59088135 -101.00367737 -49.00000000
v 75.81454468 -11.15267467 -49.00000000
v 75.85792542 -11.37077332 -49.00000000
v 75.92940521 -11.58134270 -49.00000000
v 76.02775574 -11.78078079 -49.00000000
v 76.15129852 -11.96567535 -49.00000000
v 76.29792023 -12.13286209 -49.00000000
v 76.46510315 -12.27948093 -49.00000000
v 76.65000153 -12.40302372 -49.00000000
v 76.84944153 -12.50137615 -49.00000000
v 77.06000519 -12.57285500 -49.00000000
v 77.27810669 -12.61623669 -49.00000000
v 77.50000000 -12.63078022 -49.00000000
v 77.72189331 -12.61623669 -49.00000000
v 77.93999481 -12.57285500 -49.00000000
v 78.15055847 -12.50137615 -49.00000000
v 79.18545532 -11.15267467 -49.00000000
v 79.14207458 -11.37077332 -49.00000000
v 79.07059479 -11.58134270 -49.00000000
v 78.53489685 -12.27948093 -49.00000000
v 78.70207977 -12.13286209 -49.00000000
v 78.34999847 -12.40302372 -49.00000000
v 78.97224426 -11.78078079 -49.00000000
v 78.84870148 -11.96567535 -49.00000000
v 85.45997620 -10.84894943 -45.00000000
v 85.45997620 -10.84894943 -49.00000000
v 90.62310791 -15.37689400 -45.00000000
v 90.62310791 -15.37689400 -49.00000000
v 95.15104675 -20.54002571 -45.00000000
v 95.15104675 -20.54002571 -49.00000000
v 98.96633148 -26.25000000 -45.00000000
v 98.96633148 -26.25000000 -49.00000000
v 85.45997620 -94.15104675 -45.00000000
v 90.62310791 -89.62310791 -45.00000000
v 95.15104675 -84.45997620 -45.00000000
v 100.65000153 -51.02775574 -45.00000000
v 102.00367737 -32.40911865 -45.00000000
v 98.96633148 -78.75000000 -45.00000000
v 99.92940521 -51.84943771 -45.00000000
v 100.02775574 -51.65000153 -45.00000000
v 99.85792542 -52.06000900 -45.00000000
v 99.81454468 -52.27810669 -45.00000000
v 99.80000305 -52.50000000 -45.00000000
v 100.15129852 -51.46510696 -45.00000000
v 100.29792023 -51.29792023 -45.00000000
v 100.46510315 -51.15129852 -45.00000000
v 100.84944153 -50.92940521 -45.00000000
v 101.06000519 -50.85792542 -45.00000000
v 101.27810669 -50.81454468 -45.00000000
v 101.50000000 -50.79999924 -45.00000000
v 101.72189331 -50.81454468 -45.00000000
v 101.93999481 -50.85792542 -45.00000000
v 102.15055847 -50.92940521 -45.00000000
v 102.34999847 -51.02775574 -45.00000000
v 102.53489685 -51.15129852 -45.00000000
v 102.70207977 -51.29792023 -45.00000000
v 102.84870148 -51.46510696 -45.00000000
v 102.97224426 -51.65000153 -45.00000000
v 103.07059479 -51.84943771 -45.00000000
v 103.14207458 -52.06000900 -45.00000000
v 103.18545532 -52.27810669 -45.00000000
v 103.19999695 -52.50000000 -45.00000000
v 104.21110535 -66.08799744 -45.00000000
v 104.21110535 -38.91199875 -45.00000000
v 105.55085754 -59.35262680 -45.00000000
v 105.55085754 -45.64737320 -45.00000000
v 79.75000000 -97.96633148 -49.00000000
v 85.45997620 -94.15104675 -49.00000000
v 90.62310791 -89.62310791 -49.00000000
v 102.00367737 -32.40911865 -49.00000000
v 100.15129852 -51.46510696 -49.00000000
v 104.21110535 -38.91199875 -49.00000000
v 106.00000000 -52.50000000 -45.00000000
v 105.55085754 -45.64737320 -49.00000000
v 95.15104675 -84.45997620 -49.00000000
v 100.02775574 -51.65000153 -49.00000000
v 99.92940521 -51.84943771 -49.00000000
v 99.85792542 -52.06000900 -49.00000000
v 99.81454468 -52.27810669 -49.00000000
v 99.80000305 -52.50000000 -49.00000000
v 100.84944153 -50.92940521 -49.00000000
v 100.65000153 -51.02775574 -49.00000000
v 101.06000519 -50.85792542 -49.00000000
v 100.46510315 -51.15129852 -49.00000000
v 100.29792023 -51.29792023 -49.00000000
v 101.93999481 -50.85792542 -49.00000000
v 101.27810669 -50.81454468 -49.00000000
v 101.50000000 -50.79999924 -49.00000000
v 101.72189331 -50.81454468 -49.00000000
v 106.00000000 -52.50000000 -49.00000000
v 102.15055847 -50.92940521 -49.00000000
v 102.34999847 -51.02775574 -49.00000000
v 102.53489685 -51.15129852 -49.00000000
v 102.70207977 -51.29792023 -49.00000000
v 102.84870148 -51.46510696 -49.00000000
v 102.97224426 -51.65000153 -49.00000000
v 103.07059479 -51.84943771 -49.00000000
v 103.14207458 -52.06000900 -49.00000000
v 103.18545532 -52.27810669 -49.00000000
v 103.19999695 -52.50000000 -49.00000000
v 104.21110535 -66.08799744 -49.00000000
v 75.92940521 -93.41865540 -45.00000000
v 76.02775574 -93.21922302 -45.00000000
v 76.15129852 -93.03432465 -45.00000000
v 76.46510315 -92.72052002 -45.00000000
v 76.65000153 -92.59697723 -45.00000000
v 76.84944153 -92.49862671 -45.00000000
v 76.29792023 -92.86713409 -45.00000000
v 75.80000305 -94.06922150 -45.00000000
v 75.81454468 -93.84732819 -45.00000000
v 75.85792542 -93.62922668 -45.00000000
v 77.06000519 -92.42714691 -45.00000000
v 77.27810669 -92.38376617 -45.00000000
v 77.50000000 -92.36921692 -45.00000000
v 77.72189331 -92.38376617 -45.00000000
v 77.93999481 -92.42714691 -45.00000000
v 78.15055847 -92.49862671 -45.00000000
v 78.34999847 -92.59697723 -45.00000000
v 78.53489685 -92.72052002 -45.00000000
v 78.70207977 -92.86713409 -45.00000000
v 78.84870148 -93.03432465 -45.00000000
v 78.97224426 -93.21922302 -45.00000000
v 79.07059479 -93.41865540 -45.00000000
v 79.14207458 -93.62922668 -45.00000000
v 79.18545532 -93.84732819 -45.00000000
v 79.19999695 -94.06922150 -45.00000000
v 76.15129852 -93.03432465 -49.00000000
v 76.02775574 -93.21922302 -49.00000000
v 76.29792023 -92.86713409 -49.00000000
v 75.92940521 -93.41865540 -49.00000000
v 75.85792542 -93.62922668 -49.00000000
v 75.81454468 -93.84732819 -49.00000000
v 75.80000305 -94.06922150 -49.00000000
v 76.46510315 -92.72052002 -49.00000000
v 76.65000153 -92.59697723 -49.00000000
v 76.84944153 -92.49862671 -49.00000000
v 77.06000519 -92.42714691 -49.00000000
v 77.27810669 -92.38376617 -49.00000000
v 77.50000000 -92.36921692 -49.00000000
v 77.72189331 -92.38376617 -49.00000000
v 77.93999481 -92.42714691 -49.00000000
v 78.15055847 -92.49862671 -49.00000000
v 78.34999847 -92.59697723 -49.00000000
v 78.53489685 -92.72052002 -49.00000000
v 78.70207977 -92.86713409 -49.00000000
v 78.84870148 -93.03432465 -49.00000000
v 78.97224426 -93.21922302 -49.00000000
v 79.07059479 -93.41865540 -49.00000000
v 79.14207458 -93.62922668 -49.00000000
v 79.18545532 -93.84732819 -49.00000000
v 79.19999695 -94.06922150 -49.00000000
v 75.81454468 -94.29111481 -45.00000000
v 75.85792542 -94.50920868 -45.00000000
v 75.92940521 -94.71977997 -45.00000000
v 76.02775574 -94.91921997 -45.00000000
v 76.15129852 -95.10411072 -45.00000000
v 76.29792023 -95.27130127 -45.00000000
v 76.46510315 -95.41792297 -45.00000000
v 76.65000153 -95.54146576 -45.00000000
v 76.84944153 -95.63981628 -45.00000000
v 77.06000519 -95.71129608 -45.00000000
v 77.27810669 -95.75467682 -45.00000000
v 77.50000000 -95.76921844 -45.00000000
v 77.72189331 -95.75467682 -45.00000000
v 77.93999481 -95.71129608 -45.00000000
v 78.15055847 -95.63981628 -45.00000000
v 78.34999847 -95.54146576 -45.00000000
v 78.53489685 -95.41792297 -45.00000000
v 78.70207977 -95.27130127 -45.00000000
v 78.84870148 -95.10411072 -45.00000000
v 79.18545532 -94.29111481 -45.00000000
v 79.14207458 -94.50920868 -45.00000000
v 79.07059479 -94.71977997 -45.00000000
v 78.97224426 -94.91921997 -45.00000000
v 75.81454468 -94.29111481 -49.00000000
v 75.85792542 -94.50920868 -49.00000000
v 75.92940521 -94.71977997 -49.00000000
v 76.02775574 -94.91921997 -49.00000000
v 76.15129852 -95.10411072 -49.00000000
v 76.29792023 -95.27130127 -49.00000000
v 76.46510315 -95.41792297 -49.00000000
v 76.65000153 -95.54146576 -49.00000000
v 76.84944153 -95.63981628 -49.00000000
v 77.06000519 -95.71129608 -49.00000000
v 77.27810669 -95.75467682 -49.00000000
v 77.50000000 -95.76921844 -49.00000000
v 77.72189331 -95.75467682 -49.00000000
v 77.93999481 -95.71129608 -49.00000000
v 78.15055847 -95.63981628 -49.00000000
v 78.34999847 -95.54146576 -49.00000000
v 78.53489685 -95.41792297 -49.00000000
v 78.70207977 -95.27130127 -49.00000000
v 78.84870148 -95.10411072 -49.00000000
v 79.18545532 -94.29111481 -49.00000000
v 79.14207458 -94.50920868 -49.00000000
v 79.07059479 -94.71977997 -49.00000000
v 78.97224426 -94.91921997 -49.00000000
v 99.81454468 -52.72189331 -45.00000000
v 99.85792542 -52.93999100 -45.00000000
v 99.92940521 -53.15056229 -45.00000000
v 100.02775574 -53.34999847 -45.00000000
v 102.00367737 -72.59088135 -45.00000000
v 100.29792023 -53.70207977 -45.00000000
v 100.15129852 -53.53489304 -45.00000000
v 100.46510315 -53.84870148 -45.00000000
v 100.65000153 -53.97224426 -45.00000000
v 100.84944153 -54.07059479 -45.00000000
v 101.06000519 -54.14207458 -45.00000000
v 102.34999847 -53.97224426 -45.00000000
v 102.15055847 -54.07059479 -45.00000000
v 102.53489685 -53.84870148 -45.00000000
v 101.93999481 -54.14207458 -45.00000000
v 103.14207458 -52.93999100 -45.00000000
v 103.07059479 -53.15056229 -45.00000000
v 102.97224426 -53.34999847 -45.00000000
v 103.18545532 -52.72189331 -45.00000000
v 102.84870148 -53.53489304 -45.00000000
v 102.70207977 -53.70207977 -45.00000000
v 101.27810669 -54.18545532 -45.00000000
v 101.50000000 -54.20000076 -45.00000000
v 101.72189331 -54.18545532 -45.00000000
v 105.55085754 -59.35262680 -49.00000000
v 98.96633148 -78.75000000 -49.00000000
v 99.81454468 -52.72189331 -49.00000000
v 99.85792542 -52.93999100 -49.00000000
v 99.92940521 -53.15056229 -49.00000000
v 100.02775574 -53.34999847 -49.00000000
v 102.00367737 -72.59088135 -49.00000000
v 100.65000153 -53.97224426 -49.00000000
v 100.84944153 -54.07059479 -49.00000000
v 101.06000519 -54.14207458 -49.00000000
v 100.15129852 -53.53489304 -49.00000000
v 100.29792023 -53.70207977 -49.00000000
v 100.46510315 -53.84870148 -49.00000000
v 103.18545532 -52.72189331 -49.00000000
v 101.27810669 -54.18545532 -49.00000000
v 101.50000000 -54.20000076 -49.00000000
v 101.72189331 -54.18545532 -49.00000000
v 101.93999481 -54.14207458 -49.00000000
v 102.15055847 -54.07059479 -49.00000000
v 102.34999847 -53.97224426 -49.00000000
v 102.53489685 -53.84870148 -49.00000000
v 102.70207977 -53.70207977 -49.00000000
v 102.84870148 -53.53489304 -49.00000000
v 102.97224426 -53.34999847 -49.00000000
v 103.14207458 -52.93999100 -49.00000000
v 103.07059479 -53.15056229 -49.00000000
f 1 2 3
f 4 2 1
f 4 5 6
f 4 7 2
f 8 5 9
f 8 10 11
f 8 9 10
f 8 12 5
f 8 11 13
f 4 14 5
f 4 1 14
f 9 5 14
f 4 6 7
f 8 13 12
f 5 15 6
f 5 12 15
f 16 17 3
f 16 18 17
f 18 19 17
f 16 3 2
f 16 2 20
f 16 21 18
f 18 22 19
f 18 23 22
f 18 24 25
f 18 26 24
f 24 27 28
f 2 7 20
f 16 20 21
f 18 21 26
f 24 26 27
f 29 11 30
f 11 10 30
f 29 30 31
f 29 31 32
f 29 33 11
f 29 32 34
f 32 31 35
f 32 35 36
f 36 35 37
f 36 37 38
f 32 36 39
f 36 38 40
f 11 33 13
f 29 34 33
f 32 39 34
f 36 40 39
f 6 15 41
f 6 42 7
f 6 41 42
f 12 13 43
f 43 13 44
f 41 15 45
f 12 45 15
f 12 43 45
f 20 7 46
f 20 47 21
f 20 46 48
f 20 48 47
f 46 7 42
f 21 47 49
f 21 50 26
f 33 51 44
f 33 44 13
f 33 34 51
f 51 34 52
f 34 39 52
f 52 39 53
f 39 40 53
f 53 40 54
f 24 28 55
f 18 25 23
f 24 55 25
f 23 25 56
f 28 50 55
f 55 57 25
f 56 25 58
f 56 58 59
f 59 58 60
f 60 58 61
f 60 61 62
f 25 63 58
f 58 64 61
f 28 27 50
f 55 50 57
f 25 57 63
f 58 63 64
f 61 65 62
f 62 65 66
f 65 67 66
f 61 68 65
f 66 67 69
f 67 70 69
f 69 70 71
f 65 72 67
f 67 72 70
f 70 73 71
f 71 73 74
f 70 75 73
f 61 64 68
f 65 68 72
f 70 72 75
f 73 75 76
f 74 73 77
f 74 77 78
f 77 79 78
f 78 79 80
f 73 76 77
f 77 81 79
f 79 82 80
f 80 82 83
f 83 82 84
f 83 84 85
f 79 86 82
f 82 87 84
f 77 76 81
f 79 81 86
f 82 86 87
f 87 88 84
f 26 50 27
f 21 57 50
f 21 49 57
f 49 89 57
f 89 90 57
f 90 91 57
f 57 91 63
f 91 92 63
f 63 92 64
f 64 92 93
f 64 93 68
f 68 93 94
f 68 94 72
f 72 94 95
f 72 95 75
f 75 95 96
f 75 96 76
f 96 97 76
f 76 97 81
f 81 97 98
f 81 98 86
f 86 98 99
f 86 99 87
f 99 100 87
f 87 100 88
f 38 37 101
f 38 101 102
f 102 101 103
f 102 103 104
f 38 102 105
f 102 104 106
f 103 107 104
f 104 107 108
f 107 109 108
f 108 109 110
f 104 108 111
f 108 110 112
f 38 105 40
f 102 106 105
f 104 111 106
f 108 112 111
f 110 109 113
f 110 113 114
f 110 114 115
f 113 116 114
f 114 116 117
f 116 118 117
f 114 117 119
f 117 120 119
f 117 118 120
f 118 121 120
f 120 121 122
f 120 122 123
f 110 115 112
f 114 119 115
f 120 123 119
f 122 124 123
f 121 125 122
f 122 125 126
f 126 125 127
f 126 127 128
f 126 128 129
f 122 126 124
f 126 129 130
f 129 128 131
f 129 132 133
f 129 133 134
f 133 135 136
f 126 130 124
f 129 134 130
f 133 136 134
f 136 135 137
f 40 105 54
f 54 105 138
f 105 106 138
f 138 106 139
f 139 106 111
f 139 111 140
f 140 111 112
f 140 112 141
f 112 115 141
f 141 115 142
f 142 115 119
f 142 119 143
f 143 119 123
f 143 123 144
f 144 123 124
f 144 124 145
f 145 124 130
f 145 130 146
f 130 134 146
f 146 134 147
f 134 148 147
f 134 149 148
f 134 136 150
f 85 84 151
f 85 151 152
f 152 151 153
f 152 153 154
f 84 88 151
f 151 155 153
f 154 153 156
f 154 156 157
f 157 158 159
f 157 156 158
f 153 160 156
f 158 156 161
f 151 88 155
f 153 155 160
f 156 160 161
f 158 161 162
f 129 131 163
f 133 132 135
f 129 163 132
f 131 164 163
f 165 163 164
f 135 132 137
f 132 163 166
f 167 168 169
f 165 170 163
f 170 169 163
f 167 169 170
f 163 169 150
f 168 171 169
f 132 166 137
f 163 150 166
f 169 171 150
f 168 172 171
f 173 174 175
f 173 176 177
f 173 175 176
f 159 178 174
f 159 158 178
f 175 174 178
f 158 162 178
f 175 178 179
f 168 177 176
f 167 177 168
f 168 176 172
f 175 180 176
f 175 179 181
f 175 181 180
f 178 162 179
f 176 180 172
f 100 182 88
f 88 182 155
f 182 183 155
f 155 183 160
f 183 184 160
f 160 184 161
f 185 162 161
f 184 185 161
f 134 150 149
f 136 137 166
f 136 166 150
f 149 150 186
f 187 188 172
f 189 186 171
f 189 171 188
f 186 150 171
f 172 188 171
f 190 179 191
f 190 181 179
f 190 192 181
f 185 191 162
f 162 191 179
f 187 180 192
f 187 172 180
f 181 192 180
f 1 3 42
f 9 43 10
f 9 14 45
f 1 41 14
f 1 42 41
f 10 43 44
f 14 41 45
f 9 45 43
f 17 19 48
f 17 46 3
f 22 47 19
f 22 23 49
f 17 48 46
f 3 46 42
f 19 47 48
f 22 49 47
f 10 44 30
f 30 51 31
f 31 52 35
f 35 53 37
f 30 44 51
f 31 51 52
f 35 52 53
f 53 54 37
f 23 56 89
f 56 59 90
f 59 60 91
f 60 62 92
f 23 89 49
f 56 90 89
f 59 91 90
f 60 92 91
f 62 66 93
f 66 69 94
f 69 71 95
f 71 74 96
f 62 93 92
f 66 94 93
f 69 95 94
f 71 96 95
f 74 78 97
f 78 80 98
f 80 83 99
f 83 85 100
f 74 97 96
f 78 98 97
f 80 99 98
f 83 100 99
f 37 54 101
f 101 138 103
f 103 139 107
f 107 140 109
f 101 54 138
f 103 138 139
f 107 139 140
f 109 140 141
f 109 141 113
f 113 142 116
f 116 143 118
f 118 144 121
f 113 141 142
f 116 142 143
f 118 143 144
f 121 144 145
f 121 145 125
f 125 146 127
f 127 147 128
f 128 148 131
f 125 145 146
f 127 146 147
f 128 147 148
f 148 149 131
f 85 152 182
f 152 154 183
f 154 157 184
f 157 159 185
f 85 182 100
f 152 183 182
f 154 184 183
f 157 185 184
f 131 149 164
f 165 164 186
f 167 170 188
f 165 189 170
f 164 149 186
f 165 186 189
f 167 188 187
f 170 189 188
f 173 177 192
f 173 190 174
f 159 174 191
f 167 187 177
f 174 190 191
f 173 192 190
f 159 191 185
f 177 187 192
f 193 194 195
f 193 196 194
f 197 198 199
f 197 199 200
f 193 201 196
f 197 200 201
f 201 202 196
f 201 200 202
f 203 204 195
f 203 205 206
f 203 206 207
f 203 207 208
f 203 208 209
f 203 209 210
f 205 211 212
f 205 213 214
f 205 212 213
f 205 215 216
f 205 217 215
f 205 218 211
f 205 216 218
f 205 219 206
f 205 214 220
f 205 220 219
f 221 222 205
f 195 204 223
f 203 210 224
f 203 224 225
f 203 225 226
f 203 226 227
f 203 227 204
f 195 223 228
f 195 228 229
f 195 229 230
f 195 230 231
f 193 195 232
f 197 233 198
f 193 234 201
f 197 201 235
f 203 236 205
f 203 195 237
f 203 237 236
f 195 194 237
f 237 194 238
f 221 205 239
f 221 240 241
f 205 236 239
f 237 242 243
f 237 243 244
f 237 244 245
f 237 246 242
f 237 247 246
f 237 248 247
f 237 249 248
f 237 250 249
f 237 251 250
f 237 252 251
f 237 253 252
f 237 254 253
f 237 255 254
f 221 239 240
f 239 236 256
f 237 257 236
f 237 245 258
f 237 258 257
f 194 259 238
f 194 260 259
f 194 261 260
f 194 262 261
f 237 263 255
f 237 238 263
f 194 264 262
f 194 265 264
f 194 266 265
f 194 267 266
f 196 268 194
f 200 269 202
f 200 199 270
f 196 202 271
f 198 272 273
f 198 274 272
f 198 275 274
f 198 276 275
f 198 277 276
f 198 273 278
f 198 278 279
f 198 279 280
f 198 280 281
f 198 281 282
f 198 282 283
f 283 282 284
f 283 284 285
f 283 285 286
f 283 286 287
f 283 287 288
f 283 288 289
f 283 289 290
f 283 290 291
f 283 291 292
f 283 292 293
f 283 293 294
f 283 294 295
f 283 295 296
f 283 296 297
f 198 283 298
f 283 299 300
f 198 298 199
f 199 301 302
f 199 302 303
f 199 303 304
f 199 304 305
f 199 305 306
f 199 307 301
f 199 308 307
f 199 309 308
f 199 310 309
f 199 311 310
f 199 312 311
f 199 313 312
f 199 314 313
f 199 298 314
f 298 315 314
f 298 316 315
f 298 317 316
f 298 318 317
f 298 319 318
f 298 320 319
f 298 321 320
f 298 322 321
f 298 323 322
f 298 324 323
f 298 325 324
f 283 300 298
f 299 326 327
f 326 328 329
f 299 327 300
f 326 329 327
f 283 297 330
f 283 331 299
f 198 330 277
f 330 332 277
f 330 333 332
f 330 334 333
f 330 335 334
f 330 336 335
f 330 337 336
f 330 338 337
f 330 339 338
f 330 340 339
f 330 341 340
f 330 342 341
f 330 343 342
f 330 344 343
f 330 345 344
f 330 346 345
f 330 347 348
f 330 348 349
f 330 297 347
f 330 350 351
f 330 352 350
f 330 353 346
f 330 351 353
f 330 354 352
f 330 349 354
f 299 355 326
f 326 356 328
f 199 306 357
f 298 357 325
f 298 300 358
f 357 306 359
f 357 359 360
f 357 360 361
f 357 361 362
f 357 362 363
f 357 363 364
f 357 364 365
f 357 365 366
f 357 366 367
f 357 367 368
f 357 368 369
f 357 369 370
f 357 370 371
f 357 371 372
f 357 372 373
f 357 373 374
f 357 374 375
f 357 375 376
f 357 377 325
f 357 378 379
f 357 380 377
f 357 379 380
f 357 376 381
f 357 381 378
f 300 327 382
f 327 329 383
f 221 241 384
f 221 384 222
f 205 385 217
f 205 222 385
f 385 386 217
f 385 387 386
f 385 388 387
f 385 389 388
f 385 390 389
f 385 391 390
f 385 392 391
f 385 393 392
f 385 394 393
f 385 395 394
f 385 396 395
f 385 397 396
f 385 398 397
f 385 399 398
f 195 231 400
f 385 401 399
f 385 402 401
f 400 403 404
f 400 405 406
f 400 406 402
f 400 404 405
f 400 231 407
f 400 407 408
f 400 408 409
f 400 409 403
f 195 400 232
f 385 400 402
f 193 232 234
f 201 234 235
f 197 235 233
f 241 256 384
f 384 257 222
f 241 240 256
f 239 256 240
f 236 257 256
f 257 258 410
f 257 410 411
f 257 411 412
f 257 412 413
f 257 413 414
f 257 414 415
f 257 415 416
f 257 416 417
f 257 417 418
f 257 418 419
f 384 256 257
f 420 419 421
f 420 421 422
f 420 422 423
f 420 423 424
f 257 419 420
f 194 268 267
f 420 425 426
f 420 427 428
f 420 426 427
f 420 424 429
f 420 429 425
f 268 428 430
f 268 431 267
f 268 432 431
f 268 433 432
f 268 430 433
f 196 271 268
f 222 420 385
f 385 268 400
f 222 257 420
f 420 428 268
f 385 420 268
f 202 269 271
f 200 270 269
f 199 357 270
f 400 271 232
f 400 268 271
f 232 269 234
f 234 269 235
f 232 271 269
f 235 269 270
f 235 270 233
f 270 357 233
f 198 434 435
f 198 436 437
f 198 438 434
f 198 437 438
f 198 439 436
f 198 440 441
f 198 435 440
f 198 441 442
f 198 442 443
f 198 443 444
f 198 444 445
f 198 445 446
f 198 446 447
f 198 447 448
f 198 448 449
f 198 449 450
f 198 450 451
f 198 451 452
f 198 452 453
f 198 453 454
f 198 454 455
f 198 455 456
f 198 456 457
f 198 457 458
f 198 233 439
f 198 458 330
f 283 330 331
f 299 331 355
f 326 355 356
f 298 459 357
f 298 460 461
f 298 461 462
f 298 462 463
f 298 464 465
f 298 466 464
f 298 465 460
f 298 463 467
f 298 467 468
f 298 468 459
f 298 469 470
f 298 470 466
f 298 471 469
f 298 472 471
f 298 473 472
f 298 474 473
f 298 475 474
f 298 476 475
f 298 477 476
f 298 478 477
f 298 479 478
f 298 480 479
f 298 481 480
f 298 482 481
f 298 483 482
f 298 358 483
f 300 382 358
f 327 383 382
f 383 329 484
f 233 485 439
f 233 486 485
f 233 487 486
f 233 488 487
f 233 489 488
f 233 490 489
f 233 491 490
f 233 492 491
f 233 493 492
f 330 458 494
f 330 494 495
f 330 495 496
f 330 496 497
f 233 330 493
f 330 498 493
f 330 499 498
f 330 500 499
f 330 501 500
f 330 502 501
f 330 503 502
f 330 504 505
f 330 506 507
f 330 507 504
f 330 505 503
f 330 497 506
f 233 357 330
f 330 358 331
f 330 357 358
f 357 459 508
f 357 508 509
f 357 509 510
f 357 510 511
f 357 511 512
f 357 512 513
f 357 513 514
f 357 514 515
f 357 515 516
f 357 516 517
f 357 517 518
f 357 518 519
f 357 519 520
f 358 521 483
f 358 522 521
f 358 523 522
f 358 524 523
f 357 520 358
f 358 520 525
f 358 525 526
f 358 527 528
f 358 529 530
f 358 528 529
f 358 526 527
f 358 530 524
f 331 358 382
f 331 382 355
f 355 383 356
f 355 382 383
f 383 484 356
f 531 532 533
f 531 534 535
f 531 536 537
f 531 533 536
f 531 537 534
f 531 535 538
f 531 538 539
f 531 539 540
f 531 541 532
f 531 542 541
f 531 543 542
f 531 544 543
f 540 539 545
f 540 545 546
f 540 546 547
f 540 547 548
f 540 548 549
f 540 549 550
f 540 550 551
f 540 551 552
f 540 552 553
f 540 553 554
f 540 554 555
f 540 555 556
f 540 556 557
f 328 558 559
f 558 560 561
f 328 559 329
f 558 561 559
f 560 531 562
f 531 540 563
f 560 562 561
f 531 563 562
f 562 564 565
f 562 566 567
f 562 568 569
f 562 569 564
f 562 567 568
f 562 570 566
f 562 571 570
f 562 572 571
f 562 573 572
f 562 574 573
f 562 563 574
f 562 565 575
f 562 575 576
f 562 576 577
f 562 577 578
f 563 579 574
f 563 580 579
f 563 581 580
f 563 582 581
f 563 583 582
f 563 584 583
f 563 585 584
f 563 586 585
f 563 587 586
f 563 588 587
f 328 589 558
f 558 590 560
f 560 591 531
f 531 592 544
f 540 557 592
f 592 593 544
f 592 594 593
f 592 595 594
f 592 596 595
f 592 597 596
f 592 598 597
f 592 599 598
f 592 600 599
f 592 601 600
f 592 602 601
f 592 603 602
f 592 604 603
f 592 605 604
f 592 606 605
f 592 607 606
f 592 608 607
f 592 609 608
f 592 610 611
f 592 611 609
f 592 557 612
f 592 613 614
f 592 614 615
f 592 612 613
f 592 615 610
f 329 559 484
f 559 561 616
f 561 562 617
f 562 578 618
f 618 578 619
f 618 619 620
f 618 620 621
f 618 621 622
f 618 622 623
f 618 623 624
f 618 624 625
f 618 625 626
f 618 626 627
f 618 627 628
f 618 628 629
f 618 629 630
f 618 630 631
f 618 632 633
f 618 631 632
f 618 634 588
f 618 635 634
f 618 636 635
f 618 637 638
f 618 633 639
f 618 639 637
f 618 640 636
f 618 641 640
f 618 638 641
f 563 618 588
f 540 642 643
f 540 643 563
f 642 644 645
f 644 646 645
f 642 645 643
f 646 647 645
f 646 648 647
f 647 648 649
f 540 650 642
f 642 651 644
f 644 652 646
f 648 653 654
f 646 655 648
f 648 656 657
f 648 658 656
f 648 659 658
f 648 660 659
f 648 661 662
f 648 663 653
f 648 662 663
f 648 657 661
f 654 653 664
f 654 664 665
f 654 665 666
f 654 666 667
f 654 667 668
f 654 668 669
f 654 669 670
f 654 670 671
f 654 671 672
f 654 672 673
f 654 673 674
f 654 674 675
f 654 675 676
f 654 676 677
f 654 677 678
f 654 678 679
f 654 680 681
f 654 679 680
f 681 682 683
f 563 643 684
f 643 645 685
f 645 647 686
f 648 654 649
f 654 681 687
f 654 687 649
f 649 687 688
f 681 689 687
f 681 683 689
f 683 690 691
f 647 649 692
f 649 693 694
f 649 694 695
f 649 695 696
f 649 696 697
f 649 688 693
f 687 698 699
f 687 700 698
f 687 701 702
f 687 702 688
f 687 699 701
f 683 691 689
f 687 689 703
f 687 704 700
f 687 705 704
f 687 706 705
f 687 703 706
f 691 690 707
f 689 708 703
f 689 709 708
f 689 710 709
f 689 711 710
f 689 712 711
f 689 713 712
f 689 714 713
f 689 715 714
f 689 716 715
f 689 717 716
f 689 691 718
f 328 356 589
f 558 589 590
f 531 719 720
f 531 720 721
f 531 722 723
f 531 723 724
f 531 721 725
f 531 725 722
f 531 726 727
f 531 728 719
f 531 727 728
f 531 724 729
f 531 729 730
f 531 730 731
f 531 731 732
f 531 732 733
f 531 733 734
f 531 734 735
f 531 735 736
f 531 736 737
f 531 737 738
f 531 738 739
f 531 739 740
f 531 740 741
f 531 741 742
f 531 742 743
f 531 743 592
f 560 590 591
f 531 591 726
f 559 616 484
f 561 617 616
f 563 744 745
f 563 746 744
f 563 747 748
f 563 748 749
f 563 745 747
f 563 749 750
f 563 751 746
f 563 752 751
f 563 753 752
f 563 754 753
f 563 755 754
f 563 756 755
f 563 757 756
f 563 758 757
f 563 759 758
f 563 760 759
f 563 761 760
f 563 762 761
f 563 763 762
f 563 764 763
f 563 765 764
f 563 766 765
f 563 767 766
f 563 768 767
f 562 618 617
f 563 750 618
f 563 684 768
f 591 769 726
f 591 770 769
f 591 771 770
f 591 772 771
f 591 773 772
f 591 774 773
f 591 775 774
f 591 776 775
f 591 777 776
f 591 778 777
f 591 779 778
f 591 592 779
f 592 780 779
f 592 781 780
f 592 782 781
f 592 783 782
f 592 784 783
f 592 785 784
f 592 786 785
f 592 787 786
f 592 743 788
f 592 788 789
f 592 789 790
f 592 790 791
f 592 791 787
f 356 484 589
f 589 616 590
f 589 484 616
f 590 616 617
f 590 617 591
f 591 618 592
f 591 617 618
f 592 618 684
f 618 750 792
f 618 792 793
f 618 793 794
f 618 794 795
f 618 795 796
f 618 796 797
f 618 797 798
f 618 798 799
f 618 799 800
f 618 800 801
f 618 801 802
f 618 802 803
f 618 803 804
f 618 804 805
f 618 805 806
f 618 806 684
f 684 806 807
f 684 807 808
f 684 808 809
f 684 809 810
f 684 811 768
f 684 812 811
f 684 813 812
f 684 814 813
f 684 810 814
f 642 650 651
f 644 651 652
f 540 592 650
f 648 655 660
f 646 652 655
f 655 815 660
f 655 816 815
f 655 817 816
f 655 818 817
f 819 820 821
f 819 822 820
f 819 823 822
f 819 824 823
f 819 825 824
f 655 821 818
f 681 680 682
f 680 826 827
f 680 828 826
f 680 827 829
f 680 830 831
f 680 831 832
f 680 679 833
f 680 833 830
f 680 834 835
f 680 835 828
f 680 832 834
f 683 682 690
f 819 836 825
f 819 837 836
f 819 838 837
f 819 829 838
f 680 829 819
f 655 819 821
f 647 692 686
f 643 685 684
f 645 686 685
f 690 682 707
f 680 839 682
f 649 697 840
f 649 840 692
f 840 697 841
f 840 841 842
f 840 842 843
f 840 843 844
f 845 846 847
f 845 847 848
f 840 844 849
f 840 849 850
f 840 850 851
f 840 851 846
f 682 839 707
f 689 845 717
f 845 852 717
f 689 718 845
f 691 707 839
f 691 839 718
f 680 718 839
f 845 848 853
f 845 853 854
f 845 854 855
f 845 855 856
f 845 856 857
f 845 857 858
f 845 858 859
f 845 859 860
f 845 860 861
f 845 861 862
f 845 863 852
f 845 864 863
f 845 862 864
f 655 845 819
f 680 819 718
f 840 846 845
f 655 840 845
f 819 845 718
f 651 650 685
f 651 692 652
f 651 685 686
f 651 686 692
f 592 684 650
f 684 685 650
f 655 652 840
f 840 652 692
f 693 661 657
f 688 662 661
f 702 663 662
f 694 657 656
f 695 656 658
f 696 658 659
f 697 659 660
f 653 699 664
f 701 653 663
f 664 698 665
f 665 700 666
f 666 704 667
f 667 705 668
f 668 706 669
f 669 703 670
f 708 671 670
f 709 672 671
f 710 673 672
f 673 711 674
f 712 675 674
f 713 676 675
f 714 677 676
f 715 678 677
f 678 716 679
f 701 663 702
f 688 702 662
f 693 688 661
f 694 693 657
f 695 694 656
f 696 695 658
f 697 696 659
f 653 701 699
f 664 699 698
f 665 698 700
f 666 700 704
f 667 704 705
f 668 705 706
f 669 706 703
f 708 670 703
f 709 671 708
f 710 672 709
f 711 673 710
f 711 712 674
f 712 713 675
f 713 714 676
f 714 715 677
f 715 716 678
f 716 717 679
f 841 660 815
f 842 815 816
f 843 816 817
f 844 817 818
f 849 818 821
f 850 821 820
f 851 820 822
f 823 846 822
f 824 847 823
f 825 848 824
f 836 853 825
f 837 854 836
f 838 855 837
f 829 856 838
f 857 829 827
f 864 832 831
f 858 827 826
f 859 826 828
f 860 828 835
f 861 835 834
f 862 834 832
f 679 717 833
f 852 830 833
f 863 831 830
f 841 697 660
f 842 841 815
f 843 842 816
f 844 843 817
f 849 844 818
f 850 849 821
f 850 820 851
f 851 822 846
f 823 847 846
f 824 848 847
f 825 853 848
f 836 854 853
f 837 855 854
f 838 856 855
f 829 857 856
f 857 827 858
f 864 862 832
f 858 826 859
f 859 828 860
f 861 860 835
f 862 861 834
f 717 852 833
f 852 863 830
f 863 864 831
f 721 720 745
f 720 719 747
f 722 725 746
f 725 721 744
f 722 751 723
f 723 752 724
f 724 753 729
f 729 754 730
f 730 755 731
f 731 756 732
f 732 757 733
f 733 758 734
f 734 759 735
f 735 760 736
f 736 761 737
f 737 762 738
f 739 738 763
f 740 739 764
f 741 740 765
f 721 745 744
f 719 748 747
f 720 747 745
f 725 744 746
f 722 746 751
f 723 751 752
f 724 752 753
f 729 753 754
f 730 754 755
f 731 755 756
f 732 756 757
f 733 757 758
f 734 758 759
f 735 759 760
f 736 760 761
f 737 761 762
f 738 762 763
f 739 763 764
f 740 764 765
f 719 728 748
f 728 727 749
f 727 726 750
f 726 769 792
f 769 770 793
f 770 771 794
f 771 772 795
f 772 773 796
f 773 774 797
f 775 798 774
f 776 799 775
f 777 800 776
f 778 801 777
f 779 802 778
f 780 803 779
f 790 789 812
f 791 790 813
f 786 787 810
f 787 791 814
f 781 804 780
f 784 807 783
f 782 805 781
f 783 806 782
f 785 808 784
f 785 786 809
f 742 741 766
f 743 742 767
f 788 743 768
f 789 788 811
f 728 749 748
f 727 750 749
f 726 792 750
f 769 793 792
f 770 794 793
f 771 795 794
f 772 796 795
f 773 797 796
f 774 798 797
f 775 799 798
f 776 800 799
f 777 801 800
f 778 802 801
f 779 803 802
f 741 765 766
f 790 812 813
f 786 810 809
f 787 814 810
f 791 813 814
f 780 804 803
f 781 805 804
f 783 807 806
f 782 806 805
f 784 808 807
f 785 809 808
f 742 766 767
f 743 767 768
f 788 768 811
f 789 811 812
f 440 435 461
f 435 434 462
f 434 438 463
f 440 460 441
f 441 465 442
f 442 464 443
f 443 466 444
f 444 470 445
f 445 469 446
f 446 471 447
f 447 472 448
f 448 473 449
f 449 474 450
f 450 475 451
f 451 476 452
f 452 477 453
f 454 453 478
f 455 454 479
f 456 455 480
f 442 465 464
f 435 462 461
f 440 461 460
f 434 463 462
f 438 467 463
f 441 460 465
f 443 464 466
f 444 466 470
f 445 470 469
f 446 469 471
f 447 471 472
f 448 472 473
f 449 473 474
f 450 474 475
f 451 475 476
f 452 476 477
f 453 477 478
f 454 478 479
f 455 479 480
f 437 436 468
f 436 439 459
f 439 485 508
f 485 486 509
f 438 437 467
f 486 487 510
f 487 488 511
f 488 489 512
f 489 490 513
f 491 514 490
f 492 515 491
f 493 516 492
f 498 517 493
f 499 518 498
f 500 519 499
f 457 456 481
f 458 457 482
f 494 458 483
f 495 494 521
f 507 506 530
f 497 496 523
f 496 495 522
f 506 497 524
f 501 520 500
f 502 525 501
f 505 527 503
f 503 526 502
f 504 528 505
f 507 529 504
f 437 468 467
f 436 459 468
f 439 508 459
f 485 509 508
f 486 510 509
f 487 511 510
f 488 512 511
f 489 513 512
f 490 514 513
f 491 515 514
f 492 516 515
f 493 517 516
f 498 518 517
f 499 519 518
f 456 480 481
f 457 481 482
f 458 482 483
f 494 483 521
f 507 530 529
f 495 521 522
f 496 522 523
f 497 523 524
f 506 524 530
f 500 520 519
f 501 525 520
f 503 527 526
f 505 528 527
f 502 526 525
f 504 529 528
f 218 216 244
f 216 215 245
f 215 217 258
f 212 211 242
f 213 212 246
f 214 213 247
f 214 248 220
f 220 249 219
f 211 218 243
f 219 250 206
f 251 207 206
f 252 208 207
f 253 209 208
f 254 210 209
f 255 224 210
f 263 225 224
f 225 238 226
f 226 259 227
f 227 260 204
f 223 204 261
f 228 223 262
f 229 228 264
f 230 229 265
f 230 266 231
f 218 244 243
f 216 245 244
f 215 258 245
f 212 242 246
f 213 246 247
f 214 247 248
f 220 248 249
f 211 243 242
f 219 249 250
f 251 206 250
f 252 207 251
f 253 208 252
f 254 209 253
f 255 210 254
f 263 224 255
f 225 263 238
f 226 238 259
f 227 259 260
f 204 260 261
f 223 261 262
f 228 262 264
f 229 264 265
f 230 265 266
f 231 266 267
f 217 386 410
f 386 387 411
f 387 388 412
f 388 389 413
f 389 390 414
f 390 391 415
f 392 416 391
f 393 417 392
f 394 418 393
f 419 394 395
f 421 395 396
f 422 396 397
f 423 397 398
f 424 398 399
f 429 399 401
f 406 426 402
f 402 425 401
f 231 267 407
f 408 407 431
f 409 408 432
f 403 409 433
f 406 405 427
f 405 404 428
f 404 403 430
f 217 410 258
f 386 411 410
f 387 412 411
f 388 413 412
f 389 414 413
f 390 415 414
f 391 416 415
f 392 417 416
f 393 418 417
f 394 419 418
f 419 395 421
f 421 396 422
f 422 397 423
f 423 398 424
f 424 399 429
f 429 401 425
f 402 426 425
f 407 267 431
f 408 431 432
f 409 432 433
f 403 433 430
f 404 430 428
f 405 428 427
f 406 427 426
f 275 276 305
f 276 277 306
f 277 332 359
f 332 333 360
f 278 307 279
f 279 308 280
f 281 310 282
f 282 311 284
f 280 309 281
f 284 312 285
f 273 272 302
f 278 273 301
f 272 274 303
f 274 275 304
f 285 313 286
f 286 314 287
f 287 315 288
f 288 316 289
f 289 317 290
f 290 318 291
f 291 319 292
f 293 292 320
f 294 293 321
f 295 294 322
f 296 295 323
f 297 296 324
f 347 297 325
f 348 347 377
f 349 348 380
f 275 305 304
f 276 306 305
f 277 359 306
f 332 360 359
f 279 307 308
f 280 308 309
f 282 310 311
f 281 309 310
f 284 311 312
f 285 312 313
f 272 303 302
f 273 302 301
f 278 301 307
f 274 304 303
f 333 361 360
f 286 313 314
f 287 314 315
f 288 315 316
f 289 316 317
f 290 317 318
f 291 318 319
f 292 319 320
f 293 320 321
f 294 321 322
f 295 322 323
f 296 323 324
f 297 324 325
f 347 325 377
f 348 377 380
f 333 334 361
f 334 335 362
f 335 336 363
f 336 337 364
f 338 365 337
f 339 366 338
f 340 367 339
f 341 368 340
f 342 369 341
f 343 370 342
f 344 371 343
f 345 372 344
f 346 373 345
f 353 374 346
f 351 375 353
f 350 352 381
f 350 376 351
f 354 349 379
f 352 354 378
f 334 362 361
f 335 363 362
f 336 364 363
f 337 365 364
f 338 366 365
f 339 367 366
f 340 368 367
f 341 369 368
f 342 370 369
f 343 371 370
f 344 372 371
f 345 373 372
f 346 374 373
f 353 375 374
f 351 376 375
f 350 381 376
f 354 379 378
f 349 380 379
f 352 378 381
f 537 536 569
f 537 568 534
f 535 566 538
f 534 567 535
f 538 570 539
f 539 571 545
f 533 532 565
f 541 542 576
f 532 541 575
f 536 533 564
f 542 543 577
f 543 544 578
f 544 593 619
f 593 594 620
f 545 572 546
f 546 573 547
f 547 574 548
f 548 579 549
f 549 580 550
f 550 581 551
f 551 582 552
f 553 552 583
f 554 553 584
f 555 554 585
f 614 613 635
f 556 555 586
f 557 556 587
f 612 557 588
f 613 612 634
f 537 569 568
f 538 566 570
f 534 568 567
f 535 567 566
f 539 570 571
f 545 571 572
f 533 565 564
f 532 575 565
f 541 576 575
f 542 577 576
f 536 564 569
f 543 578 577
f 544 619 578
f 593 620 619
f 594 621 620
f 546 572 573
f 547 573 574
f 548 574 579
f 549 579 580
f 550 580 581
f 551 581 582
f 552 582 583
f 553 583 584
f 554 584 585
f 555 585 586
f 556 586 587
f 557 587 588
f 612 588 634
f 613 634 635
f 594 595 621
f 595 596 622
f 596 597 623
f 597 598 624
f 599 625 598
f 600 626 599
f 601 627 600
f 602 628 601
f 603 629 602
f 604 630 603
f 605 631 604
f 606 632 605
f 607 633 606
f 608 639 607
f 609 637 608
f 609 611 638
f 615 614 636
f 610 615 640
f 611 610 641
f 595 622 621
f 596 623 622
f 597 624 623
f 598 625 624
f 599 626 625
f 600 627 626
f 601 628 627
f 602 629 628
f 603 630 629
f 604 631 630
f 605 632 631
f 606 633 632
f 607 639 633
f 609 638 637
f 614 635 636
f 615 636 640
f 611 641 638
f 610 640 641
f 608 637 639

