# https://github.com/mikedh/trimesh
v 92.14770508 52.13765335 1.00000000
v 92.14770508 52.86234665 1.00000000
v 92.11197662 52.31726456 1.00000000
v 92.28756714 51.79999924 1.00000000
v 92.28756714 53.20000076 1.00000000
v 92.20656586 51.96424484 1.00000000
v 92.20656586 53.03575516 1.00000000
v 92.38930511 51.64773560 1.00000000
v 92.38930511 53.35226440 1.00000000
v 92.51004791 51.51005173 1.00000000
v 92.51004791 53.48994827 1.00000000
v 92.64773560 51.38930511 1.00000000
v 92.64773560 53.61069489 1.00000000
v 92.80000305 51.28756332 1.00000000
v 92.80000305 53.71243668 1.00000000
v 92.96424103 51.20656967 1.00000000
v 92.96424103 53.79343033 1.00000000
v 93.13764954 51.14770508 1.00000000
v 93.13764954 53.85229492 1.00000000
v 93.31726074 51.11197662 1.00000000
v 93.31726074 53.88802338 1.00000000
v 93.50000000 51.09999847 1.00000000
v 93.50000000 53.90000153 1.00000000
v 93.68273926 51.11197662 1.00000000
v 93.68273926 53.88802338 1.00000000
v 93.86235046 51.14770508 1.00000000
v 93.86235046 53.85229492 1.00000000
v 94.03575897 51.20656967 1.00000000
v 94.03575897 53.79343033 1.00000000
v 94.19999695 51.28756332 1.00000000
v 94.19999695 53.71243668 1.00000000
v 94.35226440 51.38930511 1.00000000
v 94.35226440 53.61069489 1.00000000
v 94.48995209 51.51005173 1.00000000
v 94.48995209 53.48994827 1.00000000
v 94.61069489 51.64773560 1.00000000
v 94.61069489 53.35226440 1.00000000
v 94.71243286 51.79999924 1.00000000
v 94.71243286 53.20000076 1.00000000
v 94.79343414 51.96424484 1.00000000
v 94.79343414 53.03575516 1.00000000
v 94.85229492 52.13765335 1.00000000
v 94.85229492 52.86234665 1.00000000
v 94.88802338 52.31726456 1.00000000
v 94.88802338 52.68273544 1.00000000
v 92.51004791 51.51005173 6.00000000
v 92.80000305 51.28756332 6.00000000
v 92.64773560 51.38930511 6.00000000
v 92.28756714 51.79999924 6.00000000
v 92.20656586 51.96424484 6.00000000
v 92.14770508 52.13765335 6.00000000
v 92.11197662 52.31726456 6.00000000
v 92.09999847 52.50000000 1.00000000
v 92.09999847 52.50000000 6.00000000
v 92.38930511 51.64773560 6.00000000
v 92.96424103 51.20656967 6.00000000
v 93.13764954 51.14770508 6.00000000
v 93.31726074 51.11197662 6.00000000
v 93.50000000 51.09999847 6.00000000
v 93.68273926 51.11197662 6.00000000
v 93.86235046 51.14770508 6.00000000
v 94.03575897 51.20656967 6.00000000
v 94.19999695 51.28756332 6.00000000
v 94.35226440 51.38930511 6.00000000
v 94.48995209 51.51005173 6.00000000
v 94.61069489 51.64773560 6.00000000
v 94.71243286 51.79999924 6.00000000
v 94.79343414 51.96424484 6.00000000
v 94.85229492 52.13765335 6.00000000
v 94.88802338 52.31726456 6.00000000
v 94.90000153 52.50000000 1.00000000
v 94.90000153 52.50000000 6.00000000
v 92.11197662 52.68273544 1.00000000
v 92.11197662 52.68273544 6.00000000
v 92.14770508 52.86234665 6.00000000
v 92.20656586 53.03575516 6.00000000
v 92.28756714 53.20000076 6.00000000
v 92.38930511 53.35226440 6.00000000
v 92.51004791 53.48994827 6.00000000
v 92.64773560 53.61069489 6.00000000
v 92.80000305 53.71243668 6.00000000
v 92.96424103 53.79343033 6.00000000
v 93.13764954 53.85229492 6.00000000
v 93.31726074 53.88802338 6.00000000
v 93.50000000 53.90000153 6.00000000
v 93.68273926 53.88802338 6.00000000
v 93.86235046 53.85229492 6.00000000
v 94.61069489 53.35226440 6.00000000
v 94.71243286 53.20000076 6.00000000
v 94.03575897 53.79343033 6.00000000
v 94.19999695 53.71243668 6.00000000
v 94.35226440 53.61069489 6.00000000
v 94.48995209 53.48994827 6.00000000
v 94.85229492 52.86234665 6.00000000
v 94.88802338 52.68273544 6.00000000
v 94.79343414 53.03575516 6.00000000
v 52.28756332 91.80000305 1.00000000
v 52.28756332 93.19999695 1.00000000
v 52.20656967 91.96424103 1.00000000
v 52.38930511 91.64773560 1.00000000
v 52.38930511 93.35226440 1.00000000
v 52.51005173 91.51004791 1.00000000
v 52.51005173 93.48995209 1.00000000
v 52.14770508 92.13764954 1.00000000
v 52.20656967 93.03575897 1.00000000
v 52.14770508 92.86235046 1.00000000
v 52.11197662 92.31726074 1.00000000
v 52.11197662 92.68273926 1.00000000
v 52.09999847 92.50000000 1.00000000
v 52.64773560 93.61069489 1.00000000
v 52.64773560 91.38930511 1.00000000
v 52.79999924 91.28756714 1.00000000
v 52.79999924 93.71243286 1.00000000
v 52.96424484 91.20656586 1.00000000
v 52.96424484 93.79343414 1.00000000
v 53.13765335 91.14770508 1.00000000
v 53.13765335 93.85229492 1.00000000
v 53.31726456 91.11197662 1.00000000
v 53.31726456 93.88802338 1.00000000
v 53.50000000 91.09999847 1.00000000
v 53.50000000 93.90000153 1.00000000
v 52.28756332 91.80000305 6.00000000
v 52.38930511 91.64773560 6.00000000
v 52.51005173 91.51004791 6.00000000
v 52.64773560 91.38930511 6.00000000
v 52.79999924 91.28756714 6.00000000
v 52.96424484 91.20656586 6.00000000
v 53.13765335 91.14770508 6.00000000
v 53.31726456 91.11197662 6.00000000
v 52.14770508 92.13764954 6.00000000
v 52.20656967 91.96424103 6.00000000
v 52.11197662 92.31726074 6.00000000
v 52.09999847 92.50000000 6.00000000
v 52.11197662 92.68273926 6.00000000
v 52.14770508 92.86235046 6.00000000
v 52.20656967 93.03575897 6.00000000
v 52.28756332 93.19999695 6.00000000
v 52.38930511 93.35226440 6.00000000
v 52.51005173 93.48995209 6.00000000
v 52.64773560 93.61069489 6.00000000
v 52.79999924 93.71243286 6.00000000
v 52.96424484 93.79343414 6.00000000
v 53.13765335 93.85229492 6.00000000
v 53.31726456 93.88802338 6.00000000
v 53.50000000 93.90000153 6.00000000
v 53.50000000 91.09999847 6.00000000
v 53.68273544 91.11197662 1.00000000
v 53.68273544 93.88802338 1.00000000
v 53.86234665 91.14770508 1.00000000
v 53.86234665 93.85229492 1.00000000
v 54.03575516 91.20656586 1.00000000
v 54.03575516 93.79343414 1.00000000
v 54.20000076 91.28756714 1.00000000
v 54.20000076 93.71243286 1.00000000
v 54.35226440 91.38930511 1.00000000
v 54.35226440 93.61069489 1.00000000
v 54.48994827 93.48995209 1.00000000
v 54.48994827 91.51004791 1.00000000
v 54.61069489 91.64773560 1.00000000
v 54.61069489 93.35226440 1.00000000
v 54.71243668 91.80000305 1.00000000
v 54.71243668 93.19999695 1.00000000
v 54.79343033 91.96424103 1.00000000
v 54.79343033 93.03575897 1.00000000
v 54.85229492 92.13764954 1.00000000
v 54.85229492 92.86235046 1.00000000
v 54.88802338 92.31726074 1.00000000
v 54.88802338 92.68273926 1.00000000
v 54.90000153 92.50000000 1.00000000
v 53.68273544 91.11197662 6.00000000
v 53.86234665 91.14770508 6.00000000
v 54.03575516 91.20656586 6.00000000
v 54.20000076 91.28756714 6.00000000
v 54.35226440 91.38930511 6.00000000
v 54.48994827 91.51004791 6.00000000
v 54.61069489 91.64773560 6.00000000
v 54.71243668 91.80000305 6.00000000
v 54.20000076 93.71243286 6.00000000
v 54.35226440 93.61069489 6.00000000
v 54.79343033 91.96424103 6.00000000
v 54.85229492 92.13764954 6.00000000
v 54.88802338 92.31726074 6.00000000
v 54.90000153 92.50000000 6.00000000
v 54.88802338 92.68273926 6.00000000
v 54.85229492 92.86235046 6.00000000
v 54.79343033 93.03575897 6.00000000
v 54.71243668 93.19999695 6.00000000
v 54.61069489 93.35226440 6.00000000
v 54.48994827 93.48995209 6.00000000
v 53.68273544 93.88802338 6.00000000
v 53.86234665 93.85229492 6.00000000
v 54.03575516 93.79343414 6.00000000
v 12.20656872 51.96424484 1.00000000
v 12.20656872 53.03575516 1.00000000
v 12.14770412 52.13765335 1.00000000
v 12.14770412 52.86234665 1.00000000
v 12.11197758 52.31726456 1.00000000
v 12.38930511 51.64773560 1.00000000
v 12.51005077 51.51005173 1.00000000
v 12.51005077 53.48994827 1.00000000
v 12.28756428 51.79999924 1.00000000
v 12.28756428 53.20000076 1.00000000
v 12.38930511 53.35226440 1.00000000
v 12.64773369 51.38930511 1.00000000
v 12.64773369 53.61069489 1.00000000
v 12.80000019 51.28756332 1.00000000
v 12.80000019 53.71243668 1.00000000
v 12.96424294 51.20656967 1.00000000
v 12.96424294 53.79343033 1.00000000
v 13.13765335 51.14770508 1.00000000
v 13.13765335 53.85229492 1.00000000
v 13.31726360 51.11197662 1.00000000
v 13.31726360 53.88802338 1.00000000
v 13.50000000 51.09999847 1.00000000
v 13.50000000 53.90000153 1.00000000
v 13.68273640 51.11197662 1.00000000
v 13.68273640 53.88802338 1.00000000
v 13.86234665 51.14770508 1.00000000
v 13.86234665 53.85229492 1.00000000
v 14.03575706 51.20656967 1.00000000
v 14.03575706 53.79343033 1.00000000
v 14.19999981 51.28756332 1.00000000
v 14.19999981 53.71243668 1.00000000
v 14.35226631 51.38930511 1.00000000
v 14.35226631 53.61069489 1.00000000
v 14.48994923 51.51005173 1.00000000
v 14.48994923 53.48994827 1.00000000
v 14.61069489 51.64773560 1.00000000
v 14.61069489 53.35226440 1.00000000
v 14.71243572 51.79999924 1.00000000
v 14.71243572 53.20000076 1.00000000
v 14.79343128 51.96424484 1.00000000
v 14.79343128 53.03575516 1.00000000
v 14.85229588 52.13765335 1.00000000
v 14.85229588 52.86234665 1.00000000
v 14.88802242 52.31726456 1.00000000
v 14.88802242 52.68273544 1.00000000
v 12.20656872 51.96424484 6.00000000
v 12.11197758 52.31726456 6.00000000
v 12.14770412 52.13765335 6.00000000
v 12.10000038 52.50000000 1.00000000
v 12.10000038 52.50000000 6.00000000
v 12.51005077 51.51005173 6.00000000
v 12.64773369 51.38930511 6.00000000
v 12.80000019 51.28756332 6.00000000
v 12.96424294 51.20656967 6.00000000
v 12.28756428 51.79999924 6.00000000
v 12.38930511 51.64773560 6.00000000
v 13.13765335 51.14770508 6.00000000
v 13.31726360 51.11197662 6.00000000
v 13.50000000 51.09999847 6.00000000
v 13.68273640 51.11197662 6.00000000
v 13.86234665 51.14770508 6.00000000
v 14.03575706 51.20656967 6.00000000
v 14.19999981 51.28756332 6.00000000
v 14.35226631 51.38930511 6.00000000
v 14.48994923 51.51005173 6.00000000
v 14.61069489 51.64773560 6.00000000
v 14.71243572 51.79999924 6.00000000
v 14.79343128 51.96424484 6.00000000
v 14.85229588 52.13765335 6.00000000
v 14.88802242 52.31726456 6.00000000
v 14.89999962 52.50000000 1.00000000
v 14.89999962 52.50000000 6.00000000
v 12.11197758 52.68273544 1.00000000
v 12.11197758 52.68273544 6.00000000
v 12.14770412 52.86234665 6.00000000
v 12.20656872 53.03575516 6.00000000
v 12.28756428 53.20000076 6.00000000
v 12.38930511 53.35226440 6.00000000
v 12.51005077 53.48994827 6.00000000
v 12.64773369 53.61069489 6.00000000
v 12.80000019 53.71243668 6.00000000
v 12.96424294 53.79343033 6.00000000
v 13.13765335 53.85229492 6.00000000
v 13.31726360 53.88802338 6.00000000
v 13.50000000 53.90000153 6.00000000
v 13.68273640 53.88802338 6.00000000
v 13.86234665 53.85229492 6.00000000
v 14.03575706 53.79343033 6.00000000
v 14.61069489 53.35226440 6.00000000
v 14.88802242 52.68273544 6.00000000
v 14.85229588 52.86234665 6.00000000
v 14.79343128 53.03575516 6.00000000
v 14.71243572 53.20000076 6.00000000
v 14.35226631 53.61069489 6.00000000
v 14.19999981 53.71243668 6.00000000
v 14.48994923 53.48994827 6.00000000
v 52.14770508 12.13765335 1.00000000
v 52.20656967 11.96424294 1.00000000
v 52.20656967 13.03575706 1.00000000
v 52.28756332 11.80000019 1.00000000
v 52.28756332 13.19999981 1.00000000
v 52.11197662 12.31726360 1.00000000
v 52.11197662 12.68273640 1.00000000
v 52.09999847 12.50000000 1.00000000
v 52.14770508 12.86234665 1.00000000
v 52.38930511 11.64773369 1.00000000
v 52.38930511 13.35226631 1.00000000
v 52.51005173 11.51005077 1.00000000
v 52.51005173 13.48994923 1.00000000
v 52.64773560 13.61069489 1.00000000
v 52.64773560 11.38930511 1.00000000
v 52.79999924 11.28756428 1.00000000
v 52.79999924 13.71243572 1.00000000
v 52.96424484 11.20656872 1.00000000
v 52.96424484 13.79343128 1.00000000
v 53.13765335 11.14770412 1.00000000
v 53.13765335 13.85229588 1.00000000
v 53.31726456 11.11197758 1.00000000
v 53.31726456 13.88802242 1.00000000
v 53.50000000 11.10000038 1.00000000
v 53.50000000 13.89999962 1.00000000
v 52.96424484 11.20656872 6.00000000
v 53.13765335 11.14770412 6.00000000
v 53.31726456 11.11197758 6.00000000
v 52.51005173 11.51005077 6.00000000
v 52.38930511 11.64773369 6.00000000
v 52.28756332 11.80000019 6.00000000
v 52.20656967 11.96424294 6.00000000
v 52.14770508 12.13765335 6.00000000
v 52.11197662 12.31726360 6.00000000
v 52.09999847 12.50000000 6.00000000
v 52.11197662 12.68273640 6.00000000
v 52.14770508 12.86234665 6.00000000
v 52.20656967 13.03575706 6.00000000
v 52.64773560 11.38930511 6.00000000
v 52.79999924 11.28756428 6.00000000
v 52.28756332 13.19999981 6.00000000
v 52.38930511 13.35226631 6.00000000
v 52.51005173 13.48994923 6.00000000
v 52.64773560 13.61069489 6.00000000
v 52.79999924 13.71243572 6.00000000
v 52.96424484 13.79343128 6.00000000
v 53.13765335 13.85229588 6.00000000
v 53.31726456 13.88802242 6.00000000
v 53.50000000 13.89999962 6.00000000
v 53.50000000 11.10000038 6.00000000
v 53.68273544 11.11197758 1.00000000
v 53.68273544 13.88802242 1.00000000
v 53.86234665 11.14770412 1.00000000
v 53.86234665 13.85229588 1.00000000
v 54.03575516 11.20656872 1.00000000
v 54.03575516 13.79343128 1.00000000
v 54.20000076 11.28756428 1.00000000
v 54.20000076 13.71243572 1.00000000
v 54.35226440 11.38930511 1.00000000
v 54.35226440 13.61069489 1.00000000
v 54.48994827 13.48994923 1.00000000
v 54.48994827 11.51005077 1.00000000
v 54.61069489 11.64773369 1.00000000
v 54.61069489 13.35226631 1.00000000
v 54.71243668 11.80000019 1.00000000
v 54.71243668 13.19999981 1.00000000
v 54.79343033 11.96424294 1.00000000
v 54.79343033 13.03575706 1.00000000
v 54.85229492 12.13765335 1.00000000
v 54.85229492 12.86234665 1.00000000
v 54.88802338 12.31726360 1.00000000
v 54.88802338 12.68273640 1.00000000
v 54.90000153 12.50000000 1.00000000
v 53.68273544 11.11197758 6.00000000
v 53.86234665 11.14770412 6.00000000
v 54.03575516 11.20656872 6.00000000
v 54.20000076 11.28756428 6.00000000
v 54.35226440 11.38930511 6.00000000
v 54.48994827 11.51005077 6.00000000
v 54.61069489 11.64773369 6.00000000
v 54.71243668 11.80000019 6.00000000
v 54.79343033 11.96424294 6.00000000
v 54.85229492 12.13765335 6.00000000
v 54.88802338 12.31726360 6.00000000
v 54.90000153 12.50000000 6.00000000
v 54.88802338 12.68273640 6.00000000
v 54.79343033 13.03575706 6.00000000
v 54.85229492 12.86234665 6.00000000
v 53.68273544 13.88802242 6.00000000
v 53.86234665 13.85229588 6.00000000
v 54.03575516 13.79343128 6.00000000
v 54.20000076 13.71243572 6.00000000
v 54.35226440 13.61069489 6.00000000
v 54.48994827 13.48994923 6.00000000
v 54.61069489 13.35226631 6.00000000
v 54.71243668 13.19999981 6.00000000
v 5.89879942 15.97431469 0.00000000
v 11.07359314 10.07359314 0.00000000
v 5.89879942 15.97431469 6.00000000
v 1.53847575 22.50000000 6.00000000
v 1.53847575 22.50000000 0.00000000
v 16.97431374 4.89879942 0.00000000
v 16.97431374 4.89879942 6.00000000
v 23.50000000 0.53847575 0.00000000
v 23.50000000 0.53847575 6.00000000
v -1.93277192 29.53899384 0.00000000
v 1.53847575 82.50000000 0.00000000
v -4.45554972 36.97085571 0.00000000
v -1.93277192 75.46100616 0.00000000
v -5.98669147 44.66843033 0.00000000
v -4.45554972 68.02914429 0.00000000
v 5.89879942 89.02568817 0.00000000
v 23.50000000 104.46152496 0.00000000
v 11.07359314 94.92640686 0.00000000
v 16.97431374 100.10120392 0.00000000
v -1.93277192 29.53899384 6.00000000
v -4.45554972 36.97085571 6.00000000
v -5.98669147 44.66843033 6.00000000
v -6.50000000 52.50000000 6.00000000
v -6.50000000 52.50000000 0.00000000
v 30.53899384 -2.93277192 0.00000000
v 39.50000000 28.25128937 0.00000000
v 37.97085571 -5.45554972 0.00000000
v 31.28610611 35.45468140 0.00000000
v 33.70101166 32.70101166 0.00000000
v 36.45468140 30.28610611 0.00000000
v 46.25306702 25.45407677 0.00000000
v 45.66843033 -6.98669147 0.00000000
v 49.84526825 24.73954391 0.00000000
v 53.50000000 -7.50000000 0.00000000
v 42.78486252 26.63137245 0.00000000
v 53.50000000 24.50000000 0.00000000
v 30.53899384 -2.93277192 6.00000000
v 37.97085571 -5.45554972 6.00000000
v 45.66843033 -6.98669147 6.00000000
v 53.50000000 -7.50000000 6.00000000
v 27.63137245 41.78486252 0.00000000
v 29.25128937 38.50000000 0.00000000
v 26.45407677 45.25306702 0.00000000
v 25.73954391 48.84526825 0.00000000
v 25.50000000 52.50000000 0.00000000
v 11.07359314 10.07359314 6.00000000
v -4.45554972 68.02914429 6.00000000
v -1.93277192 75.46100616 6.00000000
v -5.98669147 60.33156967 6.00000000
v 1.53847575 82.50000000 6.00000000
v 5.89879942 89.02568817 6.00000000
v 16.97431374 100.10120392 6.00000000
v 26.45407677 45.25306702 6.00000000
v 33.70101166 32.70101166 6.00000000
v 31.28610611 35.45468140 6.00000000
v 39.50000000 28.25128937 6.00000000
v 36.45468140 30.28610611 6.00000000
v 42.78486252 26.63137245 6.00000000
v 46.25306702 25.45407677 6.00000000
v 49.84526825 24.73954391 6.00000000
v 53.50000000 24.50000000 6.00000000
v 29.25128937 38.50000000 6.00000000
v 27.63137245 41.78486252 6.00000000
v 25.73954391 48.84526825 6.00000000
v 25.50000000 52.50000000 6.00000000
v -5.98669147 60.33156967 0.00000000
v 11.07359314 94.92640686 6.00000000
v 25.73954391 56.15473175 0.00000000
v 26.45407677 59.74693298 0.00000000
v 30.53899384 107.93276978 0.00000000
v 27.63137245 63.21513748 0.00000000
v 29.25128937 66.50000000 0.00000000
v 31.28610611 69.54531860 0.00000000
v 33.70101166 72.29898834 0.00000000
v 37.97085571 110.45555115 0.00000000
v 36.45468140 74.71389008 0.00000000
v 39.50000000 76.74871063 0.00000000
v 42.78486252 78.36862946 0.00000000
v 45.66843033 111.98669434 0.00000000
v 46.25306702 79.54592133 0.00000000
v 49.84526825 80.26045990 0.00000000
v 53.50000000 112.50000000 0.00000000
v 53.50000000 80.50000000 0.00000000
v 23.50000000 104.46152496 6.00000000
v 30.53899384 107.93276978 6.00000000
v 37.97085571 110.45555115 6.00000000
v 45.66843033 111.98669434 6.00000000
v 25.73954391 56.15473175 6.00000000
v 26.45407677 59.74693298 6.00000000
v 27.63137245 63.21513748 6.00000000
v 29.25128937 66.50000000 6.00000000
v 31.28610611 69.54531860 6.00000000
v 53.50000000 112.50000000 6.00000000
v 33.70101166 72.29898834 6.00000000
v 36.45468140 74.71389008 6.00000000
v 39.50000000 76.74871063 6.00000000
v 42.78486252 78.36862946 6.00000000
v 46.25306702 79.54592133 6.00000000
v 49.84526825 80.26045990 6.00000000
v 53.50000000 80.50000000 6.00000000
v 57.15473175 24.73954391 0.00000000
v 61.33156967 -6.98669147 0.00000000
v 64.21513367 26.63137245 0.00000000
v 69.02914429 -5.45554972 0.00000000
v 60.74693298 25.45407677 0.00000000
v 67.50000000 28.25128937 0.00000000
v 73.29898834 32.70101166 0.00000000
v 76.46100616 -2.93277192 0.00000000
v 70.54531860 30.28610611 0.00000000
v 75.71389008 35.45468140 0.00000000
v 80.54592133 45.25306702 0.00000000
v 83.50000000 0.53847575 0.00000000
v 61.33156967 -6.98669147 6.00000000
v 69.02914429 -5.45554972 6.00000000
v 76.46100616 -2.93277192 6.00000000
v 83.50000000 0.53847575 6.00000000
v 77.74871063 38.50000000 0.00000000
v 79.36862946 41.78486252 0.00000000
v 81.26045990 48.84526825 0.00000000
v 81.50000000 52.50000000 0.00000000
v 90.02568817 4.89879942 0.00000000
v 90.02568817 4.89879942 6.00000000
v 95.92640686 10.07359314 0.00000000
v 95.92640686 10.07359314 6.00000000
v 101.10120392 15.97431469 0.00000000
v 105.46152496 22.50000000 0.00000000
v 101.10120392 15.97431469 6.00000000
v 90.02568817 100.10120392 0.00000000
v 95.92640686 94.92640686 0.00000000
v 101.10120392 89.02568817 0.00000000
v 105.46152496 82.50000000 0.00000000
v 108.93276978 75.46100616 0.00000000
v 108.93276978 29.53899384 0.00000000
v 111.45555115 68.02914429 0.00000000
v 111.45555115 36.97085571 0.00000000
v 112.98669434 60.33156967 0.00000000
v 112.98669434 44.66843033 0.00000000
v 105.46152496 22.50000000 6.00000000
v 108.93276978 29.53899384 6.00000000
v 111.45555115 36.97085571 6.00000000
v 113.50000000 52.50000000 0.00000000
v 112.98669434 44.66843033 6.00000000
v 60.74693298 25.45407677 6.00000000
v 57.15473175 24.73954391 6.00000000
v 64.21513367 26.63137245 6.00000000
v 67.50000000 28.25128937 6.00000000
v 70.54531860 30.28610611 6.00000000
v 73.29898834 32.70101166 6.00000000
v 75.71389008 35.45468140 6.00000000
v 77.74871063 38.50000000 6.00000000
v 79.36862946 41.78486252 6.00000000
v 80.54592133 45.25306702 6.00000000
v 81.26045990 48.84526825 6.00000000
v 81.50000000 52.50000000 6.00000000
v 113.50000000 52.50000000 6.00000000
v 83.50000000 104.46152496 6.00000000
v 95.92640686 94.92640686 6.00000000
v 101.10120392 89.02568817 6.00000000
v 105.46152496 82.50000000 6.00000000
v 108.93276978 75.46100616 6.00000000
v 111.45555115 68.02914429 6.00000000
v 83.50000000 104.46152496 0.00000000
v 81.26045990 56.15473175 0.00000000
v 80.54592133 59.74693298 0.00000000
v 77.74871063 66.50000000 0.00000000
v 75.71389008 69.54531860 0.00000000
v 79.36862946 63.21513748 0.00000000
v 57.15473175 80.26045990 0.00000000
v 61.33156967 111.98669434 0.00000000
v 60.74693298 79.54592133 0.00000000
v 69.02914429 110.45555115 0.00000000
v 64.21513367 78.36862946 0.00000000
v 67.50000000 76.74871063 0.00000000
v 76.46100616 107.93276978 0.00000000
v 70.54531860 74.71389008 0.00000000
v 73.29898834 72.29898834 0.00000000
v 61.33156967 111.98669434 6.00000000
v 69.02914429 110.45555115 6.00000000
v 76.46100616 107.93276978 6.00000000
v 112.98669434 60.33156967 6.00000000
v 90.02568817 100.10120392 6.00000000
v 81.26045990 56.15473175 6.00000000
v 80.54592133 59.74693298 6.00000000
v 79.36862946 63.21513748 6.00000000
v 77.74871063 66.50000000 6.00000000
v 75.71389008 69.54531860 6.00000000
v 57.15473175 80.26045990 6.00000000
v 60.74693298 79.54592133 6.00000000
v 64.21513367 78.36862946 6.00000000
v 67.50000000 76.74871063 6.00000000
v 70.54531860 74.71389008 6.00000000
v 73.29898834 72.29898834 6.00000000
f 1 2 3
f 4 5 6
f 1 6 7
f 4 8 9
f 10 11 8
f 10 12 13
f 12 14 15
f 14 16 17
f 18 19 16
f 18 20 21
f 20 22 23
f 22 24 25
f 24 26 27
f 26 28 29
f 28 30 31
f 30 32 33
f 32 34 35
f 34 36 37
f 36 38 39
f 38 40 41
f 40 42 43
f 42 44 45
f 10 46 12
f 14 47 16
f 12 48 14
f 4 49 8
f 4 6 50
f 1 51 6
f 1 3 52
f 3 53 54
f 10 8 55
f 18 16 56
f 18 57 20
f 20 58 22
f 22 59 24
f 24 60 26
f 26 61 28
f 28 62 30
f 30 63 32
f 32 64 34
f 34 65 36
f 36 66 38
f 38 67 40
f 40 68 42
f 42 69 44
f 44 70 71
f 10 55 46
f 12 46 48
f 14 48 47
f 8 49 55
f 4 50 49
f 6 51 50
f 1 52 51
f 3 54 52
f 16 47 56
f 18 56 57
f 20 57 58
f 22 58 59
f 24 59 60
f 26 60 61
f 28 61 62
f 30 62 63
f 32 63 64
f 34 64 65
f 36 65 66
f 38 66 67
f 40 67 68
f 42 68 69
f 44 69 70
f 71 70 72
f 3 73 53
f 3 2 73
f 1 7 2
f 6 5 7
f 4 9 5
f 8 11 9
f 10 13 11
f 12 15 13
f 14 17 15
f 16 19 17
f 18 21 19
f 20 23 21
f 22 25 23
f 24 27 25
f 26 29 27
f 28 31 29
f 30 33 31
f 32 35 33
f 36 39 37
f 38 41 39
f 34 37 35
f 42 45 43
f 40 43 41
f 44 71 45
f 53 73 74
f 73 2 75
f 2 7 76
f 7 5 77
f 5 9 78
f 9 11 79
f 11 13 80
f 13 15 81
f 15 17 82
f 17 19 83
f 19 21 84
f 21 23 85
f 23 25 86
f 25 27 87
f 35 37 88
f 39 89 37
f 29 90 27
f 29 31 91
f 31 33 92
f 33 35 93
f 71 72 45
f 43 94 41
f 45 95 43
f 41 96 39
f 53 74 54
f 73 75 74
f 2 76 75
f 7 77 76
f 5 78 77
f 9 79 78
f 11 80 79
f 13 81 80
f 15 82 81
f 17 83 82
f 19 84 83
f 21 85 84
f 23 86 85
f 25 87 86
f 39 96 89
f 37 89 88
f 27 90 87
f 29 91 90
f 31 92 91
f 33 93 92
f 35 88 93
f 45 72 95
f 43 95 94
f 41 94 96
f 97 98 99
f 97 100 101
f 102 103 100
f 104 99 105
f 104 106 107
f 107 108 109
f 107 106 108
f 104 105 106
f 99 98 105
f 97 101 98
f 100 103 101
f 102 110 103
f 102 111 110
f 112 113 111
f 112 114 115
f 114 116 117
f 116 118 119
f 118 120 121
f 111 113 110
f 112 115 113
f 114 117 115
f 116 119 117
f 118 121 119
f 97 122 100
f 102 100 123
f 102 124 111
f 112 111 125
f 112 126 114
f 114 127 116
f 116 128 118
f 118 129 120
f 104 130 99
f 97 99 131
f 104 107 132
f 107 109 133
f 109 108 134
f 108 106 135
f 106 105 136
f 105 98 137
f 98 101 138
f 101 103 139
f 103 110 140
f 110 113 141
f 113 115 142
f 115 117 143
f 117 119 144
f 119 121 145
f 97 131 122
f 102 123 124
f 100 122 123
f 112 125 126
f 114 126 127
f 111 124 125
f 116 127 128
f 118 128 129
f 120 129 146
f 99 130 131
f 104 132 130
f 107 133 132
f 109 134 133
f 108 135 134
f 106 136 135
f 105 137 136
f 98 138 137
f 101 139 138
f 103 140 139
f 110 141 140
f 113 142 141
f 115 143 142
f 117 144 143
f 119 145 144
f 120 147 148
f 147 149 150
f 149 151 152
f 151 153 154
f 153 155 156
f 120 148 121
f 147 150 148
f 149 152 150
f 151 154 152
f 153 156 154
f 155 157 156
f 155 158 157
f 158 159 160
f 159 161 162
f 161 163 164
f 163 165 166
f 158 160 157
f 159 162 160
f 165 167 168
f 165 168 166
f 167 169 168
f 161 164 162
f 163 166 164
f 120 146 147
f 147 170 149
f 149 171 151
f 151 172 153
f 153 173 155
f 155 174 158
f 158 175 159
f 159 176 161
f 161 177 163
f 152 154 178
f 154 156 179
f 163 180 165
f 165 181 167
f 167 182 169
f 169 183 168
f 168 184 166
f 164 166 185
f 164 186 162
f 162 187 160
f 160 188 157
f 156 157 189
f 121 148 190
f 148 150 191
f 150 152 192
f 147 146 170
f 149 170 171
f 151 171 172
f 153 172 173
f 155 173 174
f 158 174 175
f 159 175 176
f 161 176 177
f 154 179 178
f 156 189 179
f 163 177 180
f 165 180 181
f 167 181 182
f 169 182 183
f 168 183 184
f 166 184 185
f 164 185 186
f 162 186 187
f 157 188 189
f 160 187 188
f 121 190 145
f 148 191 190
f 150 192 191
f 152 178 192
f 193 194 195
f 195 196 197
f 198 199 200
f 201 202 193
f 198 203 201
f 199 204 205
f 204 206 207
f 206 208 209
f 210 211 208
f 210 212 213
f 212 214 215
f 214 216 217
f 216 218 219
f 218 220 221
f 220 222 223
f 222 224 225
f 224 226 227
f 226 228 229
f 228 230 231
f 230 232 233
f 232 234 235
f 234 236 237
f 201 193 238
f 195 197 239
f 193 195 240
f 197 241 242
f 199 243 204
f 204 244 206
f 206 245 208
f 210 208 246
f 198 201 247
f 198 248 199
f 210 249 212
f 212 250 214
f 214 251 216
f 216 252 218
f 218 253 220
f 220 254 222
f 222 255 224
f 224 256 226
f 226 257 228
f 228 258 230
f 230 259 232
f 232 260 234
f 234 261 236
f 236 262 263
f 193 240 238
f 195 239 240
f 197 242 239
f 199 248 243
f 204 243 244
f 206 244 245
f 208 245 246
f 210 246 249
f 198 247 248
f 201 238 247
f 212 249 250
f 214 250 251
f 216 251 252
f 218 252 253
f 220 253 254
f 222 254 255
f 224 255 256
f 226 256 257
f 228 257 258
f 230 258 259
f 232 259 260
f 234 260 261
f 236 261 262
f 263 262 264
f 197 265 241
f 197 196 265
f 195 194 196
f 193 202 194
f 201 203 202
f 198 200 203
f 199 205 200
f 204 207 205
f 206 209 207
f 208 211 209
f 210 213 211
f 212 215 213
f 214 217 215
f 216 219 217
f 218 221 219
f 220 223 221
f 222 225 223
f 224 227 225
f 226 229 227
f 228 231 229
f 232 235 233
f 230 233 231
f 236 263 237
f 234 237 235
f 241 265 266
f 265 196 267
f 196 194 268
f 194 202 269
f 202 203 270
f 203 200 271
f 200 205 272
f 205 207 273
f 207 209 274
f 209 211 275
f 211 213 276
f 213 215 277
f 215 217 278
f 217 219 279
f 221 280 219
f 229 281 227
f 263 264 237
f 237 282 235
f 233 235 283
f 233 284 231
f 229 231 285
f 223 225 286
f 221 223 287
f 225 227 288
f 241 266 242
f 265 267 266
f 196 268 267
f 194 269 268
f 202 270 269
f 203 271 270
f 200 272 271
f 205 273 272
f 207 274 273
f 209 275 274
f 211 276 275
f 213 277 276
f 215 278 277
f 217 279 278
f 219 280 279
f 221 287 280
f 237 264 282
f 235 282 283
f 233 283 284
f 231 284 285
f 229 285 281
f 223 286 287
f 225 288 286
f 227 281 288
f 289 290 291
f 292 293 290
f 294 295 296
f 289 297 294
f 294 297 295
f 298 299 292
f 300 301 298
f 289 291 297
f 290 293 291
f 292 299 293
f 298 301 299
f 300 302 301
f 300 303 302
f 303 304 305
f 304 306 307
f 306 308 309
f 308 310 311
f 310 312 313
f 303 305 302
f 304 307 305
f 306 309 307
f 308 311 309
f 310 313 311
f 306 314 308
f 308 315 310
f 310 316 312
f 300 317 303
f 300 298 318
f 298 292 319
f 292 290 320
f 289 321 290
f 289 294 322
f 294 296 323
f 296 295 324
f 295 297 325
f 297 291 326
f 303 327 304
f 304 328 306
f 291 293 329
f 293 299 330
f 299 301 331
f 301 302 332
f 302 305 333
f 305 307 334
f 307 309 335
f 309 311 336
f 311 313 337
f 306 328 314
f 308 314 315
f 310 315 316
f 312 316 338
f 298 319 318
f 300 318 317
f 292 320 319
f 290 321 320
f 289 322 321
f 294 323 322
f 296 324 323
f 295 325 324
f 297 326 325
f 291 329 326
f 303 317 327
f 304 327 328
f 293 330 329
f 299 331 330
f 301 332 331
f 302 333 332
f 305 334 333
f 307 335 334
f 309 336 335
f 311 337 336
f 312 339 340
f 339 341 342
f 341 343 344
f 343 345 346
f 345 347 348
f 312 340 313
f 339 342 340
f 341 344 342
f 343 346 344
f 345 348 346
f 347 349 348
f 347 350 349
f 350 351 352
f 351 353 354
f 353 355 356
f 355 357 358
f 357 359 360
f 359 361 360
f 357 360 358
f 355 358 356
f 350 352 349
f 351 354 352
f 353 356 354
f 312 338 339
f 339 362 341
f 341 363 343
f 343 364 345
f 345 365 347
f 347 366 350
f 350 367 351
f 351 368 353
f 353 369 355
f 355 370 357
f 357 371 359
f 359 372 361
f 361 373 360
f 360 374 358
f 356 375 354
f 356 358 376
f 313 340 377
f 340 342 378
f 342 344 379
f 344 346 380
f 348 381 346
f 348 349 382
f 352 383 349
f 352 354 384
f 339 338 362
f 341 362 363
f 343 363 364
f 345 364 365
f 347 365 366
f 350 366 367
f 351 367 368
f 353 368 369
f 355 369 370
f 357 370 371
f 359 371 372
f 361 372 373
f 360 373 374
f 358 374 376
f 356 376 375
f 313 377 337
f 340 378 377
f 342 379 378
f 348 382 381
f 344 380 379
f 346 381 380
f 352 384 383
f 349 383 382
f 354 375 384
f 385 386 387
f 385 388 389
f 390 391 386
f 390 392 393
f 394 395 389
f 394 396 397
f 396 398 399
f 385 389 400
f 390 401 392
f 385 402 386
f 390 386 403
f 394 389 404
f 394 405 396
f 396 406 398
f 398 407 408
f 409 410 411
f 409 392 412
f 409 412 413
f 409 413 414
f 409 414 410
f 411 415 416
f 416 417 418
f 411 410 419
f 411 419 415
f 416 415 417
f 418 417 420
f 409 421 392
f 409 411 422
f 411 416 423
f 416 418 424
f 392 425 426
f 392 427 425
f 392 426 412
f 392 428 427
f 392 429 428
f 385 387 388
f 390 393 391
f 386 430 387
f 386 391 430
f 391 253 430
f 389 388 404
f 394 404 405
f 396 405 406
f 398 406 407
f 404 431 405
f 404 388 432
f 405 433 406
f 387 434 388
f 387 430 435
f 430 249 246
f 430 250 249
f 430 251 250
f 430 252 251
f 430 253 252
f 391 254 253
f 391 255 254
f 391 256 255
f 391 257 256
f 391 258 257
f 391 259 258
f 391 260 259
f 391 261 260
f 391 262 261
f 391 264 262
f 391 393 436
f 430 240 239
f 430 239 242
f 430 247 238
f 430 243 248
f 430 248 247
f 430 244 243
f 430 245 244
f 430 238 240
f 430 246 245
f 392 421 393
f 409 422 421
f 411 423 422
f 416 424 423
f 421 437 393
f 421 422 438
f 421 438 439
f 422 440 441
f 422 441 438
f 422 423 442
f 423 424 320
f 424 327 317
f 424 328 327
f 424 318 319
f 424 319 320
f 424 317 318
f 424 314 328
f 424 315 314
f 424 316 315
f 424 338 316
f 422 442 440
f 423 320 442
f 442 320 321
f 442 321 322
f 442 322 323
f 442 323 324
f 442 324 325
f 326 442 325
f 326 443 442
f 326 444 443
f 444 326 329
f 444 329 330
f 444 330 331
f 444 331 332
f 444 332 333
f 444 333 334
f 444 334 335
f 444 335 336
f 336 337 444
f 445 444 337
f 421 439 446
f 421 446 447
f 421 447 437
f 393 437 448
f 393 448 449
f 398 408 450
f 398 450 399
f 396 399 397
f 394 397 395
f 389 395 400
f 385 400 402
f 386 402 403
f 390 403 401
f 408 433 450
f 450 431 399
f 399 432 397
f 397 434 395
f 395 435 400
f 400 451 402
f 402 451 403
f 403 436 401
f 392 401 429
f 401 452 429
f 401 453 452
f 454 455 453
f 454 456 455
f 454 457 456
f 401 454 453
f 454 458 457
f 459 460 458
f 459 461 460
f 454 459 458
f 459 462 461
f 463 464 462
f 463 465 464
f 466 467 465
f 459 463 462
f 463 466 465
f 401 468 454
f 454 469 459
f 459 470 463
f 463 471 466
f 408 407 433
f 450 433 431
f 399 431 432
f 397 432 434
f 406 433 407
f 405 431 433
f 404 432 431
f 388 434 432
f 387 435 434
f 430 242 451
f 430 451 435
f 451 242 266
f 451 266 267
f 451 267 268
f 451 268 269
f 451 270 271
f 451 269 270
f 451 271 272
f 451 272 273
f 451 273 274
f 451 280 287
f 391 436 264
f 451 274 275
f 451 275 276
f 451 276 277
f 451 277 278
f 451 278 279
f 451 279 280
f 436 282 264
f 436 285 284
f 436 281 285
f 436 286 288
f 436 287 286
f 436 288 281
f 436 283 282
f 436 284 283
f 393 468 436
f 395 434 435
f 400 435 451
f 403 451 436
f 401 436 468
f 451 287 436
f 393 449 468
f 468 449 472
f 468 472 473
f 468 473 474
f 468 474 475
f 468 475 476
f 454 468 469
f 459 469 470
f 463 470 471
f 471 477 466
f 468 476 469
f 469 476 478
f 469 478 479
f 469 479 480
f 469 480 470
f 470 480 481
f 470 481 482
f 483 484 126
f 483 124 123
f 483 123 122
f 483 122 131
f 483 131 130
f 483 126 125
f 483 125 124
f 484 128 127
f 484 129 128
f 484 146 129
f 484 127 126
f 471 482 483
f 471 483 130
f 470 482 471
f 471 130 132
f 471 132 133
f 471 133 134
f 471 134 135
f 471 135 136
f 471 136 137
f 471 137 138
f 471 138 139
f 471 139 140
f 471 140 141
f 471 141 142
f 471 142 143
f 471 143 144
f 471 144 145
f 471 145 477
f 418 485 486
f 486 487 488
f 418 420 485
f 486 485 489
f 486 489 487
f 488 487 490
f 488 491 492
f 488 490 493
f 488 493 491
f 492 491 494
f 492 495 496
f 418 486 497
f 486 488 498
f 488 492 499
f 492 496 500
f 492 494 501
f 492 501 502
f 492 502 495
f 496 495 503
f 496 503 504
f 496 505 506
f 505 507 508
f 507 509 508
f 509 510 511
f 496 512 505
f 505 513 507
f 507 514 509
f 509 515 510
f 510 516 517
f 517 518 519
f 519 520 521
f 510 517 522
f 517 519 523
f 519 521 524
f 521 525 526
f 418 497 424
f 486 498 497
f 488 499 498
f 492 500 499
f 424 497 338
f 497 362 338
f 497 363 362
f 497 364 363
f 497 365 364
f 497 366 365
f 497 367 366
f 497 368 367
f 497 369 368
f 497 370 369
f 497 371 370
f 497 372 371
f 497 373 372
f 497 374 373
f 497 376 374
f 497 498 527
f 497 528 376
f 497 527 528
f 379 380 445
f 337 377 445
f 377 378 445
f 378 379 445
f 528 381 382
f 528 380 381
f 528 384 375
f 528 375 376
f 528 383 384
f 528 382 383
f 528 445 380
f 498 529 527
f 498 530 529
f 498 499 530
f 499 531 530
f 499 532 531
f 499 533 532
f 499 500 533
f 500 534 533
f 500 535 534
f 500 536 535
f 500 537 536
f 500 538 537
f 496 506 500
f 505 508 506
f 509 511 508
f 510 522 511
f 506 508 47
f 517 523 522
f 519 524 523
f 521 526 524
f 526 525 539
f 500 506 540
f 506 50 51
f 506 51 52
f 506 46 55
f 506 47 48
f 506 48 46
f 506 55 49
f 506 49 50
f 506 52 54
f 508 57 56
f 508 58 57
f 508 59 58
f 508 60 59
f 508 61 60
f 508 62 61
f 508 56 47
f 508 63 62
f 508 64 63
f 508 65 64
f 508 66 65
f 508 67 66
f 508 68 67
f 508 69 68
f 508 70 69
f 508 72 70
f 508 511 541
f 511 522 542
f 522 523 543
f 523 524 544
f 524 526 545
f 496 504 546
f 546 504 547
f 546 547 548
f 546 549 550
f 546 548 551
f 546 551 549
f 466 552 467
f 553 554 552
f 555 556 554
f 555 557 556
f 466 553 552
f 553 555 554
f 558 559 557
f 558 560 559
f 558 550 560
f 558 546 550
f 555 558 557
f 466 477 553
f 553 561 555
f 555 562 558
f 558 563 546
f 505 512 513
f 507 513 514
f 496 546 512
f 509 514 515
f 521 520 525
f 519 518 520
f 517 516 518
f 510 515 516
f 525 520 539
f 520 518 564
f 518 516 545
f 516 515 544
f 546 540 512
f 513 512 565
f 514 543 515
f 513 542 514
f 500 540 538
f 540 566 538
f 540 567 566
f 563 568 567
f 563 569 568
f 563 570 569
f 553 477 561
f 555 561 562
f 558 562 563
f 546 563 540
f 146 484 571
f 571 170 146
f 571 171 170
f 571 172 171
f 571 173 172
f 571 174 173
f 571 175 174
f 571 176 175
f 571 177 176
f 571 180 177
f 180 571 572
f 180 572 573
f 180 573 181
f 573 182 181
f 573 183 182
f 573 184 183
f 573 185 184
f 573 186 185
f 561 186 573
f 562 573 574
f 477 145 190
f 477 190 191
f 477 191 192
f 477 192 178
f 477 189 188
f 477 187 186
f 477 188 187
f 477 178 179
f 477 179 189
f 477 186 561
f 561 573 562
f 562 575 576
f 562 574 575
f 563 576 570
f 562 576 563
f 563 567 540
f 520 564 539
f 518 545 564
f 516 544 545
f 515 543 544
f 506 54 565
f 508 541 72
f 541 90 91
f 541 96 94
f 541 91 92
f 541 92 93
f 541 93 88
f 541 88 89
f 541 89 96
f 541 95 72
f 541 94 95
f 506 565 540
f 565 54 74
f 565 74 75
f 565 75 76
f 565 76 77
f 565 77 78
f 565 78 79
f 565 79 80
f 565 81 82
f 565 80 81
f 565 82 83
f 541 83 84
f 541 84 85
f 541 85 86
f 541 86 87
f 541 87 90
f 511 542 541
f 522 543 542
f 526 539 564
f 526 564 545
f 523 544 543
f 524 545 544
f 513 565 541
f 513 541 542
f 512 540 565
f 514 542 543
f 541 565 83
f 412 426 446
f 414 441 410
f 413 438 414
f 413 412 439
f 425 427 437
f 426 425 447
f 448 427 428
f 449 428 429
f 440 419 410
f 419 442 415
f 443 417 415
f 417 444 420
f 446 439 412
f 440 410 441
f 413 439 438
f 414 438 441
f 437 447 425
f 426 447 446
f 448 437 427
f 449 448 428
f 419 440 442
f 443 415 442
f 417 443 444
f 420 444 445
f 472 429 452
f 473 452 453
f 453 455 474
f 455 456 475
f 456 457 476
f 457 458 478
f 460 479 458
f 480 460 461
f 462 481 461
f 482 462 464
f 465 483 464
f 484 465 467
f 472 449 429
f 473 472 452
f 453 474 473
f 455 475 474
f 476 475 456
f 478 476 457
f 458 479 478
f 460 480 479
f 480 461 481
f 462 482 481
f 482 464 483
f 465 484 483
f 445 485 420
f 485 528 489
f 489 527 487
f 487 529 490
f 490 530 493
f 531 491 493
f 491 532 494
f 501 494 533
f 534 502 501
f 495 502 535
f 503 495 536
f 504 503 537
f 485 445 528
f 489 528 527
f 487 527 529
f 490 529 530
f 531 493 530
f 491 531 532
f 532 533 494
f 533 534 501
f 534 535 502
f 495 535 536
f 503 536 537
f 504 537 538
f 467 552 571
f 554 572 552
f 556 573 554
f 557 574 556
f 504 538 547
f 548 547 566
f 568 549 551
f 551 548 567
f 560 550 570
f 559 560 576
f 575 557 559
f 550 549 569
f 484 467 571
f 552 572 571
f 554 573 572
f 556 574 573
f 566 547 538
f 548 566 567
f 568 569 549
f 567 568 551
f 575 559 576
f 560 570 576
f 557 575 574
f 569 570 550

