# https://github.com/mikedh/trimesh
v 2.79999995 2.20000005 0.00000000
v 2.79999995 0.20000000 0.00000000
v 2.79999995 0.20000000 -3.00000000
v 11.19999981 2.20000005 0.00000000
v 11.19999981 0.20000000 -3.00000000
v 11.19999981 0.20000000 0.00000000
v 2.79999995 2.20000005 -3.00000000
v 11.19999981 2.20000005 -3.00000000
v 3.00000000 2.20000005 -3.00000000
v 3.54748917 0.37797359 -3.00000000
v 3.42224240 0.20000000 -3.00000000
v 4.00611067 0.48716927 -3.00000000
v 8.72083664 1.60972285 -3.00000000
v 5.85438251 2.20000005 -3.00000000
v 8.14561749 2.20000005 -3.00000000
v 11.00000000 2.20000005 -3.00000000
v 11.00000000 0.20000000 -3.00000000
v 95.80000305 2.20000005 0.00000000
v 95.80000305 0.20000000 0.00000000
v 95.80000305 0.20000000 -3.00000000
v 104.19999695 2.20000005 0.00000000
v 104.19999695 0.20000000 -3.00000000
v 104.19999695 0.20000000 0.00000000
v 95.80000305 2.20000005 -3.00000000
v 104.19999695 2.20000005 -3.00000000
v 96.00000000 2.20000005 -3.00000000
v 96.54748535 0.37797359 -3.00000000
v 96.42224121 0.20000000 -3.00000000
v 97.00611115 0.48716927 -3.00000000
v 101.72083282 1.60972285 -3.00000000
v 98.85438538 2.20000005 -3.00000000
v 101.14561462 2.20000005 -3.00000000
v 104.00000000 2.20000005 -3.00000000
v 104.00000000 0.20000000 -3.00000000
v 95.80000305 -57.20000076 0.00000000
v 95.80000305 -59.20000076 0.00000000
v 95.80000305 -57.20000076 -3.00000000
v 104.19999695 -57.20000076 0.00000000
v 104.19999695 -57.20000076 -3.00000000
v 104.19999695 -59.20000076 0.00000000
v 95.80000305 -59.20000076 -3.00000000
v 104.19999695 -59.20000076 -3.00000000
v 96.52297974 -57.20000076 -3.00000000
v 97.84237671 -58.71371841 -3.00000000
v 98.85438538 -59.20000076 -3.00000000
v 101.14561462 -59.20000076 -3.00000000
v 98.27916718 -58.60972214 -3.00000000
v 102.99388885 -57.48716736 -3.00000000
v 96.00000000 -59.20000076 -3.00000000
v 104.00000000 -57.20000076 -3.00000000
v 104.00000000 -59.20000076 -3.00000000
v 2.79999995 -57.20000076 0.00000000
v 2.79999995 -59.20000076 0.00000000
v 2.79999995 -57.20000076 -3.00000000
v 11.19999981 -57.20000076 0.00000000
v 11.19999981 -57.20000076 -3.00000000
v 11.19999981 -59.20000076 0.00000000
v 2.79999995 -59.20000076 -3.00000000
v 11.19999981 -59.20000076 -3.00000000
v 3.52297688 -57.20000076 -3.00000000
v 4.84237719 -58.71371841 -3.00000000
v 3.00000000 -59.20000076 -3.00000000
v 5.85438251 -59.20000076 -3.00000000
v 8.14561749 -59.20000076 -3.00000000
v 5.27916384 -58.60972214 -3.00000000
v 9.99388885 -57.48716736 -3.00000000
v 11.00000000 -57.20000076 -3.00000000
v 11.00000000 -59.20000076 -3.00000000
v -2.20000005 2.20000005 0.00000000
v -0.20000000 0.20000000 0.00000000
v -2.20000005 -59.20000076 0.00000000
v -2.20000005 2.20000005 -5.00000000
v 3.00000000 2.20000005 -5.00000000
v 8.14561749 2.20000005 -5.00000000
v 5.85438251 2.20000005 -5.00000000
v -2.20000005 -59.20000076 -5.00000000
v 14.79903793 -40.25000000 -5.00000000
v 8.31567860 2.20000005 -5.00000000
v 9.17028332 2.20000005 -5.00000000
v 11.00000000 2.20000005 -5.00000000
v 12.20096207 -40.25000000 -5.00000000
v 12.11418056 -40.42597580 -5.00000000
v 12.05111122 -40.61177063 -5.00000000
v 12.75000000 -39.70096207 -5.00000000
v 12.58685780 -39.80997086 -5.00000000
v 12.92597485 -39.61418152 -5.00000000
v 13.11177158 -39.55111313 -5.00000000
v 13.30421066 -39.51283264 -5.00000000
v 13.50000000 -39.50000000 -5.00000000
v 12.30996990 -40.08685684 -5.00000000
v 12.43933964 -39.93933868 -5.00000000
v 12.01283264 -40.80421066 -5.00000000
v 12.00000000 -41.00000000 -5.00000000
v 12.01283264 -41.19578934 -5.00000000
v 12.05111122 -41.38822937 -5.00000000
v 13.00000000 -46.00000000 -5.00000000
v 13.69578934 -39.51283264 -5.00000000
v 13.88822842 -39.55111313 -5.00000000
v 14.07402515 -39.61418152 -5.00000000
v 14.25000000 -39.70096207 -5.00000000
v 14.41314220 -39.80997086 -5.00000000
v 14.56066036 -39.93933868 -5.00000000
v 14.69003010 -40.08685684 -5.00000000
v 96.00000000 2.20000005 -5.00000000
v 14.88581944 -40.42597580 -5.00000000
v 109.19999695 2.20000005 -5.00000000
v 14.94888878 -40.61177063 -5.00000000
v 103.81549835 -0.22129120 -5.00000000
v 14.98716736 -40.80421066 -5.00000000
v 15.00000000 -41.00000000 -5.00000000
v -0.20000000 -57.20000076 0.00000000
v 13.00000000 -59.20000076 0.00000000
v 13.00000000 -57.20000076 0.00000000
v 12.11418056 -41.57402420 -5.00000000
v 12.20096207 -41.75000000 -5.00000000
v 12.30996990 -41.91314316 -5.00000000
v 12.43933964 -42.06066132 -5.00000000
v 12.58685780 -42.19002914 -5.00000000
v 12.75000000 -42.29903793 -5.00000000
v 12.92597485 -42.38581848 -5.00000000
v 13.11177158 -42.44888687 -5.00000000
v 13.30421066 -42.48716736 -5.00000000
v 13.50000000 -42.50000000 -5.00000000
v 13.69578934 -42.48716736 -5.00000000
v 14.07402515 -42.38581848 -5.00000000
v 13.88822842 -42.44888687 -5.00000000
v 14.25000000 -42.29903793 -5.00000000
v 14.41314220 -42.19002914 -5.00000000
v 5.85438251 -59.20000076 -5.00000000
v 11.00000000 -59.20000076 -5.00000000
v 13.00000000 -59.20000076 -5.00000000
v 3.00000000 -59.20000076 -5.00000000
v 8.14561749 -59.20000076 -5.00000000
v 5.68432140 -59.20000076 -5.00000000
v 8.73376751 -59.20000076 -5.00000000
v 14.98716736 -41.19578934 -5.00000000
v 51.50000000 -46.00000000 -5.00000000
v 14.94888878 -41.38822937 -5.00000000
v 14.88581944 -41.57402420 -5.00000000
v 14.79903793 -41.75000000 -5.00000000
v 14.69003010 -41.91314316 -5.00000000
v 14.56066036 -42.06066132 -5.00000000
v 107.19999695 0.20000000 0.00000000
v 109.19999695 2.20000005 0.00000000
v 107.19999695 -57.20000076 0.00000000
v 109.19999695 -59.20000076 0.00000000
v 98.85438538 2.20000005 -5.00000000
v 101.14561462 2.20000005 -5.00000000
v 101.31568146 2.20000005 -5.00000000
v 103.86011505 -0.20122649 -5.00000000
v 104.00000000 2.20000005 -5.00000000
v 102.17028046 2.20000005 -5.00000000
v 51.50000000 -57.20000076 0.00000000
v 51.50000000 -59.20000076 0.00000000
v 51.50000000 -59.20000076 -5.00000000
v 96.00000000 -59.20000076 -5.00000000
v 109.19999695 -59.20000076 -5.00000000
v 102.82207489 -57.74092484 -5.00000000
v 102.97503662 -57.77591705 -5.00000000
v 98.85438538 -59.20000076 -5.00000000
v 104.00000000 -59.20000076 -5.00000000
v 101.14561462 -59.20000076 -5.00000000
v 98.68431854 -59.20000076 -5.00000000
v 101.73376465 -59.20000076 -5.00000000
v -0.20000000 0.20000000 -3.00000000
v -0.20000000 -57.20000076 -3.00000000
v 12.75000000 -39.70096207 -3.00000000
v 13.30421066 -39.51283264 -3.00000000
v 12.20096207 -40.25000000 -3.00000000
v 12.30996990 -40.08685684 -3.00000000
v 12.43933964 -39.93933868 -3.00000000
v 12.11418056 -40.42597580 -3.00000000
v 12.05111122 -40.61177063 -3.00000000
v 12.01283264 -40.80421066 -3.00000000
v 12.00000000 -41.00000000 -3.00000000
v 12.01283264 -41.19578934 -3.00000000
v 12.05111122 -41.38822937 -3.00000000
v 13.11177158 -39.55111313 -3.00000000
v 12.58685780 -39.80997086 -3.00000000
v 12.92597485 -39.61418152 -3.00000000
v 13.50000000 -39.50000000 -3.00000000
v 13.69578934 -39.51283264 -3.00000000
v 13.88822842 -39.55111313 -3.00000000
v 14.07402515 -39.61418152 -3.00000000
v 14.25000000 -39.70096207 -3.00000000
v 14.41314220 -39.80997086 -3.00000000
v 14.56066036 -39.93933868 -3.00000000
v 14.69003010 -40.08685684 -3.00000000
v 14.79903793 -40.25000000 -3.00000000
v 14.88581944 -40.42597580 -3.00000000
v 14.94888878 -40.61177063 -3.00000000
v 14.98716736 -40.80421066 -3.00000000
v 15.00000000 -41.00000000 -3.00000000
v 13.00000000 -57.20000076 -3.00000000
v 13.00000000 -46.00000000 -3.00000000
v 12.11418056 -41.57402420 -3.00000000
v 12.20096207 -41.75000000 -3.00000000
v 12.30996990 -41.91314316 -3.00000000
v 12.43933964 -42.06066132 -3.00000000
v 12.58685780 -42.19002914 -3.00000000
v 12.75000000 -42.29903793 -3.00000000
v 12.92597485 -42.38581848 -3.00000000
v 13.11177158 -42.44888687 -3.00000000
v 13.30421066 -42.48716736 -3.00000000
v 13.50000000 -42.50000000 -3.00000000
v 13.69578934 -42.48716736 -3.00000000
v 14.07402515 -42.38581848 -3.00000000
v 13.88822842 -42.44888687 -3.00000000
v 14.25000000 -42.29903793 -3.00000000
v 14.41314220 -42.19002914 -3.00000000
v 3.34642863 -56.59999847 -3.00000000
v 10.01330280 -57.20000076 -3.00000000
v 3.16941571 -56.79436874 -3.00000000
v 14.98716736 -41.19578934 -3.00000000
v 51.50000000 -46.00000000 -3.00000000
v 14.94888878 -41.38822937 -3.00000000
v 14.88581944 -41.57402420 -3.00000000
v 14.79903793 -41.75000000 -3.00000000
v 14.69003010 -41.91314316 -3.00000000
v 14.56066036 -42.06066132 -3.00000000
v 107.19999695 0.20000000 -3.00000000
v 104.00000000 0.02466793 -3.00000000
v 103.68334198 -0.25293297 -3.00000000
v 96.98669434 0.20000000 -3.00000000
v 51.50000000 -57.20000076 -3.00000000
v 107.19999695 -57.20000076 -3.00000000
v 3.00000000 6.40000010 -3.00000000
v 5.64770365 3.36234665 -3.00000000
v 5.61197710 3.18273664 -3.00000000
v 5.78756428 2.29999995 -3.00000000
v 6.14773417 4.11069489 -3.00000000
v 6.30000019 4.21243572 -3.00000000
v 6.01005030 3.98994946 -3.00000000
v 6.63765335 4.35229635 -3.00000000
v 6.81726313 4.38802290 -3.00000000
v 7.00000000 4.40000010 -3.00000000
v 6.46424341 4.29343128 -3.00000000
v 5.88930511 3.85226607 -3.00000000
v 5.78756428 3.70000005 -3.00000000
v 5.70656872 3.53575683 -3.00000000
v 7.18273687 4.38802290 -3.00000000
v 7.36234665 4.35229635 -3.00000000
v 7.53575659 4.29343128 -3.00000000
v 11.00000000 6.40000010 -3.00000000
v 5.59999990 3.00000000 -3.00000000
v 7.69999981 4.21243572 -3.00000000
v 7.85226583 4.11069489 -3.00000000
v 7.98994970 3.98994946 -3.00000000
v 8.11069489 3.85226607 -3.00000000
v 8.21243572 3.70000005 -3.00000000
v 8.29343128 3.53575683 -3.00000000
v 8.35229588 3.36234665 -3.00000000
v 8.38802242 3.18273664 -3.00000000
v 8.39999962 3.00000000 -3.00000000
v 8.38802242 2.81726336 -3.00000000
v 8.35229588 2.63765335 -3.00000000
v 5.61197710 2.81726336 -3.00000000
v 5.64770365 2.63765335 -3.00000000
v 5.70656872 2.46424317 -3.00000000
v 8.21243572 2.29999995 -3.00000000
v 8.29343128 2.46424317 -3.00000000
v 11.00000000 6.40000010 -5.00000000
v 3.00000000 6.40000010 -5.00000000
v 5.64770365 3.36234665 -5.00000000
v 5.61197710 3.18273664 -5.00000000
v 5.64770365 2.63765335 -5.00000000
v 5.59999990 3.00000000 -5.00000000
v 5.61197710 2.81726336 -5.00000000
v 6.30000019 4.21243572 -5.00000000
v 6.14773417 4.11069489 -5.00000000
v 6.01005030 3.98994946 -5.00000000
v 6.46424341 4.29343128 -5.00000000
v 5.88930511 3.85226607 -5.00000000
v 5.78756428 3.70000005 -5.00000000
v 5.70656872 3.53575683 -5.00000000
v 6.63765335 4.35229635 -5.00000000
v 6.81726313 4.38802290 -5.00000000
v 5.70656872 2.46424317 -5.00000000
v 5.78756428 2.29999995 -5.00000000
v 8.21243572 2.29999995 -5.00000000
v 7.00000000 4.40000010 -5.00000000
v 7.18273687 4.38802290 -5.00000000
v 7.36234665 4.35229635 -5.00000000
v 7.53575659 4.29343128 -5.00000000
v 7.69999981 4.21243572 -5.00000000
v 7.85226583 4.11069489 -5.00000000
v 7.98994970 3.98994946 -5.00000000
v 8.11069489 3.85226607 -5.00000000
v 8.21243572 3.70000005 -5.00000000
v 8.29343128 3.53575683 -5.00000000
v 8.35229588 3.36234665 -5.00000000
v 8.38802242 3.18273664 -5.00000000
v 8.39999962 3.00000000 -5.00000000
v 8.38802242 2.81726336 -5.00000000
v 8.29343128 2.46424317 -5.00000000
v 8.35229588 2.63765335 -5.00000000
v 96.00000000 6.40000010 -3.00000000
v 98.70656586 3.53575683 -3.00000000
v 98.78756714 3.70000005 -3.00000000
v 98.64770508 3.36234665 -3.00000000
v 99.01004791 3.98994946 -3.00000000
v 99.14773560 4.11069489 -3.00000000
v 99.30000305 4.21243572 -3.00000000
v 99.46424103 4.29343128 -3.00000000
v 99.63764954 4.35229635 -3.00000000
v 99.81726074 4.38802290 -3.00000000
v 100.00000000 4.40000010 -3.00000000
v 100.18273926 4.38802290 -3.00000000
v 98.88930511 3.85226607 -3.00000000
v 98.61197662 3.18273664 -3.00000000
v 98.59999847 3.00000000 -3.00000000
v 100.53575897 4.29343128 -3.00000000
v 104.00000000 6.40000010 -3.00000000
v 100.36235046 4.35229635 -3.00000000
v 100.69999695 4.21243572 -3.00000000
v 100.85226440 4.11069489 -3.00000000
v 100.98995209 3.98994946 -3.00000000
v 101.11069489 3.85226607 -3.00000000
v 101.21243286 3.70000005 -3.00000000
v 101.29343414 3.53575683 -3.00000000
v 101.35229492 3.36234665 -3.00000000
v 98.61197662 2.81726336 -3.00000000
v 98.78756714 2.29999995 -3.00000000
v 98.64770508 2.63765335 -3.00000000
v 98.70656586 2.46424317 -3.00000000
v 101.21243286 2.29999995 -3.00000000
v 101.35229492 2.63765335 -3.00000000
v 101.29343414 2.46424317 -3.00000000
v 101.38802338 3.18273664 -3.00000000
v 101.40000153 3.00000000 -3.00000000
v 101.38802338 2.81726336 -3.00000000
v 104.00000000 6.40000010 -5.00000000
v 96.00000000 6.40000010 -5.00000000
v 98.78756714 3.70000005 -5.00000000
v 98.70656586 3.53575683 -5.00000000
v 98.64770508 3.36234665 -5.00000000
v 98.61197662 3.18273664 -5.00000000
v 99.14773560 4.11069489 -5.00000000
v 99.01004791 3.98994946 -5.00000000
v 99.30000305 4.21243572 -5.00000000
v 99.46424103 4.29343128 -5.00000000
v 98.88930511 3.85226607 -5.00000000
v 98.64770508 2.63765335 -5.00000000
v 98.59999847 3.00000000 -5.00000000
v 98.61197662 2.81726336 -5.00000000
v 98.70656586 2.46424317 -5.00000000
v 98.78756714 2.29999995 -5.00000000
v 99.63764954 4.35229635 -5.00000000
v 99.81726074 4.38802290 -5.00000000
v 100.00000000 4.40000010 -5.00000000
v 100.18273926 4.38802290 -5.00000000
v 100.36235046 4.35229635 -5.00000000
v 100.53575897 4.29343128 -5.00000000
v 100.69999695 4.21243572 -5.00000000
v 100.85226440 4.11069489 -5.00000000
v 100.98995209 3.98994946 -5.00000000
v 101.11069489 3.85226607 -5.00000000
v 101.21243286 3.70000005 -5.00000000
v 101.29343414 3.53575683 -5.00000000
v 101.35229492 3.36234665 -5.00000000
v 101.21243286 2.29999995 -5.00000000
v 101.38802338 3.18273664 -5.00000000
v 101.40000153 3.00000000 -5.00000000
v 101.38802338 2.81726336 -5.00000000
v 101.35229492 2.63765335 -5.00000000
v 101.29343414 2.46424317 -5.00000000
v 98.70656586 -59.46424484 -3.00000000
v 98.78756714 -59.29999924 -3.00000000
v 101.21243286 -59.29999924 -3.00000000
v 101.29343414 -59.46424484 -3.00000000
v 101.35229492 -59.63765335 -3.00000000
v 96.00000000 -63.40000153 -3.00000000
v 98.64770508 -59.63765335 -3.00000000
v 98.61197662 -59.81726456 -3.00000000
v 98.59999847 -60.00000000 -3.00000000
v 98.61197662 -60.18273544 -3.00000000
v 98.64770508 -60.36234665 -3.00000000
v 98.70656586 -60.53575516 -3.00000000
v 98.78756714 -60.70000076 -3.00000000
v 98.88930511 -60.85226440 -3.00000000
v 99.01004791 -60.98994827 -3.00000000
v 99.14773560 -61.11069489 -3.00000000
v 99.30000305 -61.21243668 -3.00000000
v 99.46424103 -61.29343033 -3.00000000
v 104.00000000 -63.40000153 -3.00000000
v 99.63764954 -61.35229492 -3.00000000
v 99.81726074 -61.38802338 -3.00000000
v 100.00000000 -61.40000153 -3.00000000
v 101.35229492 -60.36234665 -3.00000000
v 101.29343414 -60.53575516 -3.00000000
v 101.21243286 -60.70000076 -3.00000000
v 101.11069489 -60.85226440 -3.00000000
v 100.98995209 -60.98994827 -3.00000000
v 100.36235046 -61.35229492 -3.00000000
v 100.53575897 -61.29343033 -3.00000000
v 100.69999695 -61.21243668 -3.00000000
v 100.18273926 -61.38802338 -3.00000000
v 100.85226440 -61.11069489 -3.00000000
v 101.38802338 -59.81726456 -3.00000000
v 101.40000153 -60.00000000 -3.00000000
v 101.38802338 -60.18273544 -3.00000000
v 96.00000000 -63.40000153 -5.00000000
v 104.00000000 -63.40000153 -5.00000000
v 101.21243286 -59.29999924 -5.00000000
v 101.29343414 -59.46424484 -5.00000000
v 98.64770508 -60.36234665 -5.00000000
v 98.70656586 -59.46424484 -5.00000000
v 98.64770508 -59.63765335 -5.00000000
v 98.61197662 -59.81726456 -5.00000000
v 98.59999847 -60.00000000 -5.00000000
v 98.61197662 -60.18273544 -5.00000000
v 98.78756714 -59.29999924 -5.00000000
v 98.70656586 -60.53575516 -5.00000000
v 98.78756714 -60.70000076 -5.00000000
v 98.88930511 -60.85226440 -5.00000000
v 99.01004791 -60.98994827 -5.00000000
v 99.14773560 -61.11069489 -5.00000000
v 99.30000305 -61.21243668 -5.00000000
v 99.46424103 -61.29343033 -5.00000000
v 99.63764954 -61.35229492 -5.00000000
v 99.81726074 -61.38802338 -5.00000000
v 100.00000000 -61.40000153 -5.00000000
v 100.18273926 -61.38802338 -5.00000000
v 101.35229492 -59.63765335 -5.00000000
v 100.36235046 -61.35229492 -5.00000000
v 100.53575897 -61.29343033 -5.00000000
v 101.35229492 -60.36234665 -5.00000000
v 101.29343414 -60.53575516 -5.00000000
v 101.21243286 -60.70000076 -5.00000000
v 101.11069489 -60.85226440 -5.00000000
v 100.98995209 -60.98994827 -5.00000000
v 100.69999695 -61.21243668 -5.00000000
v 100.85226440 -61.11069489 -5.00000000
v 101.38802338 -59.81726456 -5.00000000
v 101.40000153 -60.00000000 -5.00000000
v 101.38802338 -60.18273544 -5.00000000
v 5.70656872 -59.46424484 -3.00000000
v 3.00000000 -63.40000153 -3.00000000
v 5.64770365 -59.63765335 -3.00000000
v 5.61197710 -59.81726456 -3.00000000
v 5.59999990 -60.00000000 -3.00000000
v 5.61197710 -60.18273544 -3.00000000
v 5.64770365 -60.36234665 -3.00000000
v 5.78756428 -59.29999924 -3.00000000
v 8.21243572 -59.29999924 -3.00000000
v 8.29343128 -59.46424484 -3.00000000
v 8.35229588 -59.63765335 -3.00000000
v 8.38802242 -59.81726456 -3.00000000
v 8.39999962 -60.00000000 -3.00000000
v 8.35229588 -60.36234665 -3.00000000
v 5.70656872 -60.53575516 -3.00000000
v 5.78756428 -60.70000076 -3.00000000
v 5.88930511 -60.85226440 -3.00000000
v 6.01005030 -60.98994827 -3.00000000
v 6.14773417 -61.11069489 -3.00000000
v 6.30000019 -61.21243668 -3.00000000
v 6.46424341 -61.29343033 -3.00000000
v 11.00000000 -63.40000153 -3.00000000
v 6.63765335 -61.35229492 -3.00000000
v 6.81726313 -61.38802338 -3.00000000
v 8.38802242 -60.18273544 -3.00000000
v 8.11069489 -60.85226440 -3.00000000
v 8.21243572 -60.70000076 -3.00000000
v 7.98994970 -60.98994827 -3.00000000
v 7.36234665 -61.35229492 -3.00000000
v 7.53575659 -61.29343033 -3.00000000
v 7.00000000 -61.40000153 -3.00000000
v 7.18273687 -61.38802338 -3.00000000
v 7.69999981 -61.21243668 -3.00000000
v 7.85226583 -61.11069489 -3.00000000
v 8.29343128 -60.53575516 -3.00000000
v 3.00000000 -63.40000153 -5.00000000
v 11.00000000 -63.40000153 -5.00000000
v 5.64770365 -59.63765335 -5.00000000
v 5.61197710 -59.81726456 -5.00000000
v 5.59999990 -60.00000000 -5.00000000
v 5.61197710 -60.18273544 -5.00000000
v 5.64770365 -60.36234665 -5.00000000
v 5.70656872 -59.46424484 -5.00000000
v 5.78756428 -59.29999924 -5.00000000
v 5.70656872 -60.53575516 -5.00000000
v 5.78756428 -60.70000076 -5.00000000
v 5.88930511 -60.85226440 -5.00000000
v 6.01005030 -60.98994827 -5.00000000
v 6.14773417 -61.11069489 -5.00000000
v 6.30000019 -61.21243668 -5.00000000
v 6.46424341 -61.29343033 -5.00000000
v 6.63765335 -61.35229492 -5.00000000
v 6.81726313 -61.38802338 -5.00000000
v 7.00000000 -61.40000153 -5.00000000
v 7.36234665 -61.35229492 -5.00000000
v 7.53575659 -61.29343033 -5.00000000
v 7.18273687 -61.38802338 -5.00000000
v 8.21243572 -59.29999924 -5.00000000
v 8.29343128 -59.46424484 -5.00000000
v 8.35229588 -59.63765335 -5.00000000
v 8.38802242 -59.81726456 -5.00000000
v 8.39999962 -60.00000000 -5.00000000
v 8.38802242 -60.18273544 -5.00000000
v 8.11069489 -60.85226440 -5.00000000
v 8.21243572 -60.70000076 -5.00000000
v 7.98994970 -60.98994827 -5.00000000
v 7.69999981 -61.21243668 -5.00000000
v 7.85226583 -61.11069489 -5.00000000
v 8.35229588 -60.36234665 -5.00000000
v 8.29343128 -60.53575516 -5.00000000
f 1 2 3
f 4 5 6
f 1 3 7
f 4 8 5
f 7 3 9
f 3 10 9
f 3 11 10
f 12 13 14
f 15 14 13
f 8 16 17
f 8 17 5
f 18 19 20
f 21 22 23
f 18 20 24
f 21 25 22
f 24 20 26
f 20 27 26
f 20 28 27
f 29 30 31
f 32 31 30
f 25 33 34
f 25 34 22
f 35 36 37
f 38 39 40
f 36 41 37
f 40 39 42
f 37 41 43
f 41 44 43
f 45 46 47
f 47 46 48
f 41 49 44
f 39 50 51
f 39 51 42
f 52 53 54
f 55 56 57
f 53 58 54
f 57 56 59
f 54 58 60
f 58 61 60
f 58 62 61
f 63 64 65
f 65 64 66
f 56 67 68
f 56 68 59
f 69 2 1
f 69 70 2
f 69 1 7
f 69 71 70
f 4 6 19
f 69 7 72
f 7 9 73
f 15 74 14
f 7 73 72
f 14 74 75
f 69 72 76
f 72 73 77
f 77 73 75
f 75 74 77
f 77 74 78
f 77 78 79
f 79 80 77
f 72 81 82
f 72 82 83
f 72 84 85
f 72 86 84
f 72 87 86
f 72 88 87
f 72 89 88
f 72 90 81
f 72 91 90
f 72 85 91
f 72 83 92
f 72 92 93
f 72 93 94
f 72 94 95
f 72 95 96
f 72 97 89
f 72 98 97
f 72 99 98
f 72 100 99
f 72 101 100
f 72 102 101
f 72 103 102
f 72 77 103
f 4 104 8
f 8 104 16
f 104 80 16
f 77 80 104
f 105 106 107
f 77 108 105
f 107 106 109
f 109 106 110
f 70 71 111
f 69 76 71
f 111 71 53
f 111 53 52
f 71 58 53
f 55 112 113
f 55 57 112
f 57 59 112
f 72 96 76
f 95 114 96
f 114 115 96
f 115 116 96
f 116 117 96
f 117 118 96
f 118 119 96
f 119 120 96
f 120 121 96
f 121 122 96
f 122 123 96
f 123 124 96
f 125 96 126
f 124 126 96
f 125 127 96
f 127 128 96
f 71 76 58
f 58 76 62
f 63 129 64
f 59 68 130
f 112 59 131
f 76 132 62
f 64 129 133
f 76 96 132
f 96 134 132
f 96 129 134
f 96 133 129
f 96 135 133
f 96 130 135
f 59 130 131
f 131 130 96
f 136 110 137
f 136 137 138
f 138 137 139
f 139 137 140
f 141 140 137
f 141 137 142
f 142 137 128
f 128 137 96
f 4 19 18
f 4 18 24
f 21 23 143
f 21 143 144
f 21 144 25
f 144 143 145
f 144 146 106
f 4 24 104
f 110 106 137
f 77 104 147
f 147 148 77
f 77 148 149
f 77 149 108
f 108 150 105
f 150 106 105
f 144 106 25
f 24 26 104
f 31 32 148
f 25 106 33
f 31 148 147
f 106 151 33
f 150 152 151
f 106 150 151
f 153 154 36
f 153 36 35
f 154 155 36
f 144 145 146
f 38 146 145
f 38 40 146
f 40 42 146
f 155 41 36
f 155 49 41
f 137 156 155
f 155 156 49
f 106 146 157
f 137 106 158
f 106 159 158
f 106 157 159
f 146 42 157
f 160 46 45
f 42 51 161
f 137 158 162
f 137 163 156
f 137 160 163
f 137 162 160
f 160 162 46
f 42 161 157
f 161 164 159
f 157 161 159
f 70 165 2
f 2 165 3
f 70 166 165
f 6 5 19
f 165 167 3
f 3 168 11
f 168 17 11
f 165 169 170
f 165 170 171
f 165 172 169
f 165 173 172
f 165 174 173
f 165 175 174
f 165 176 175
f 165 177 176
f 3 178 168
f 165 179 167
f 165 171 179
f 3 167 180
f 3 180 178
f 5 17 168
f 5 168 181
f 5 181 182
f 5 182 183
f 5 183 184
f 5 184 185
f 5 185 186
f 5 186 187
f 5 187 188
f 5 188 189
f 5 189 20
f 189 190 20
f 190 191 20
f 191 192 20
f 192 193 20
f 70 111 166
f 111 52 54
f 55 113 194
f 111 54 166
f 55 194 56
f 165 166 195
f 165 195 177
f 177 195 196
f 196 195 197
f 197 195 198
f 198 195 199
f 199 195 200
f 200 195 201
f 201 195 202
f 202 195 203
f 203 195 204
f 204 195 205
f 205 195 206
f 207 208 195
f 206 195 208
f 207 195 209
f 209 195 210
f 166 211 195
f 195 211 212
f 195 212 67
f 166 54 213
f 166 213 211
f 54 60 213
f 56 195 67
f 56 194 195
f 214 215 193
f 214 216 215
f 216 217 215
f 217 218 215
f 219 215 218
f 219 220 215
f 220 210 215
f 210 195 215
f 5 20 19
f 23 22 143
f 143 22 221
f 143 221 145
f 215 28 20
f 22 34 222
f 22 222 221
f 221 222 223
f 215 224 28
f 215 223 224
f 215 221 223
f 153 35 37
f 153 37 225
f 221 226 145
f 38 145 226
f 38 226 39
f 193 215 20
f 215 225 37
f 215 37 221
f 221 37 43
f 221 43 50
f 221 50 39
f 221 39 226
f 113 112 194
f 153 155 154
f 195 194 131
f 112 131 194
f 195 131 96
f 195 137 215
f 215 137 225
f 153 225 155
f 195 96 137
f 225 137 155
f 179 171 91
f 172 82 169
f 171 170 90
f 170 169 81
f 167 84 180
f 180 86 178
f 179 85 167
f 168 178 87
f 168 88 181
f 172 173 83
f 173 174 92
f 174 175 93
f 175 176 94
f 176 177 95
f 177 196 114
f 181 89 182
f 182 97 183
f 183 98 184
f 184 99 185
f 185 100 186
f 186 101 187
f 187 102 188
f 188 103 189
f 189 77 190
f 190 105 191
f 191 107 192
f 192 109 193
f 214 136 216
f 214 193 110
f 216 138 217
f 196 197 115
f 197 198 116
f 198 199 117
f 199 200 118
f 200 201 119
f 201 202 120
f 202 203 121
f 203 204 122
f 204 205 123
f 205 206 124
f 206 208 126
f 207 209 127
f 207 125 208
f 219 218 140
f 220 142 210
f 219 141 220
f 217 139 218
f 209 210 128
f 179 91 85
f 172 83 82
f 170 81 90
f 171 90 91
f 169 82 81
f 180 84 86
f 167 85 84
f 168 87 88
f 178 86 87
f 181 88 89
f 173 92 83
f 174 93 92
f 175 94 93
f 176 95 94
f 177 114 95
f 182 89 97
f 183 97 98
f 184 98 99
f 185 99 100
f 186 100 101
f 187 101 102
f 188 102 103
f 189 103 77
f 190 77 105
f 191 105 107
f 192 107 109
f 193 109 110
f 214 110 136
f 216 136 138
f 217 138 139
f 196 115 114
f 197 116 115
f 198 117 116
f 199 118 117
f 200 119 118
f 201 120 119
f 202 121 120
f 203 122 121
f 204 123 122
f 205 124 123
f 206 126 124
f 209 128 127
f 207 127 125
f 208 125 126
f 219 140 141
f 220 141 142
f 218 139 140
f 210 142 128
f 227 9 228
f 228 9 10
f 10 11 229
f 230 11 12
f 227 231 232
f 227 233 231
f 227 234 235
f 227 235 236
f 227 232 237
f 227 237 234
f 227 238 233
f 227 239 238
f 227 240 239
f 227 228 240
f 227 236 241
f 227 241 242
f 227 242 243
f 227 243 244
f 228 10 229
f 229 11 245
f 243 246 244
f 246 247 244
f 247 248 244
f 248 249 244
f 249 250 244
f 250 251 244
f 251 252 244
f 252 253 244
f 253 254 244
f 254 255 244
f 255 256 244
f 256 16 244
f 245 11 257
f 257 11 258
f 258 11 259
f 259 11 230
f 230 12 14
f 12 11 13
f 13 11 17
f 260 15 13
f 256 261 17
f 261 260 17
f 260 13 17
f 256 17 16
f 227 73 9
f 227 244 262
f 244 16 262
f 227 263 73
f 227 262 263
f 262 16 80
f 263 264 265
f 263 266 73
f 263 265 267
f 263 267 268
f 263 268 266
f 263 269 270
f 263 270 271
f 263 272 269
f 263 271 273
f 263 273 274
f 263 274 275
f 263 275 264
f 263 262 272
f 276 262 277
f 272 262 276
f 266 278 73
f 278 279 73
f 279 75 73
f 280 78 74
f 277 262 281
f 281 262 282
f 282 262 283
f 283 262 284
f 284 262 285
f 285 262 286
f 286 262 287
f 287 262 288
f 288 262 289
f 289 262 290
f 290 262 291
f 291 262 79
f 291 79 292
f 292 79 293
f 293 79 294
f 295 78 280
f 294 79 296
f 296 79 295
f 295 79 78
f 262 80 79
f 237 232 269
f 234 276 235
f 237 272 234
f 235 277 236
f 236 281 241
f 241 282 242
f 242 283 243
f 243 284 246
f 228 229 265
f 231 233 271
f 238 239 274
f 233 238 273
f 231 270 232
f 239 240 275
f 240 228 264
f 229 245 267
f 245 257 268
f 257 258 266
f 258 259 278
f 259 230 279
f 230 14 279
f 246 285 247
f 247 286 248
f 248 287 249
f 249 288 250
f 250 289 251
f 260 74 15
f 251 290 252
f 252 291 253
f 253 292 254
f 254 293 255
f 255 294 256
f 256 296 261
f 261 295 260
f 237 269 272
f 234 272 276
f 235 276 277
f 236 277 281
f 241 281 282
f 242 282 283
f 243 283 284
f 246 284 285
f 233 273 271
f 238 274 273
f 232 270 269
f 231 271 270
f 239 275 274
f 240 264 275
f 228 265 264
f 229 267 265
f 245 268 267
f 257 266 268
f 258 278 266
f 259 279 278
f 279 14 75
f 247 285 286
f 248 286 287
f 249 287 288
f 250 288 289
f 260 295 280
f 260 280 74
f 251 289 290
f 252 290 291
f 253 291 292
f 254 292 293
f 255 293 294
f 256 294 296
f 261 296 295
f 297 298 299
f 297 300 298
f 297 301 302
f 297 302 303
f 297 303 304
f 297 305 306
f 297 306 307
f 297 307 308
f 297 304 305
f 297 309 301
f 297 299 309
f 297 26 300
f 310 28 311
f 300 27 310
f 297 312 313
f 297 308 314
f 297 314 312
f 312 315 313
f 315 316 313
f 313 316 317
f 313 317 318
f 313 318 319
f 313 319 320
f 313 320 321
f 300 26 27
f 311 28 322
f 27 28 310
f 323 28 29
f 322 28 324
f 324 28 325
f 325 28 323
f 323 29 31
f 29 28 30
f 30 28 224
f 326 32 30
f 327 328 223
f 326 223 328
f 326 30 223
f 224 223 30
f 313 321 329
f 313 329 330
f 313 330 331
f 313 331 327
f 313 327 33
f 327 34 33
f 327 222 34
f 327 223 222
f 297 104 26
f 297 313 332
f 313 33 332
f 297 333 104
f 297 332 333
f 332 33 151
f 333 334 335
f 333 335 336
f 333 336 337
f 333 338 339
f 333 340 338
f 333 341 340
f 333 339 342
f 333 342 334
f 333 343 104
f 333 337 344
f 333 344 345
f 333 345 343
f 343 346 104
f 346 347 104
f 347 147 104
f 333 332 341
f 348 332 349
f 349 332 350
f 341 332 348
f 350 332 351
f 351 332 352
f 352 332 353
f 353 332 354
f 354 332 355
f 332 356 355
f 332 357 356
f 332 358 357
f 332 359 358
f 332 360 359
f 361 149 148
f 360 152 362
f 362 150 363
f 363 150 364
f 364 150 365
f 365 150 366
f 361 366 150
f 361 150 149
f 332 152 360
f 332 151 152
f 152 150 362
f 150 108 149
f 299 298 335
f 298 300 336
f 300 310 337
f 310 311 344
f 311 322 345
f 322 324 343
f 324 325 346
f 304 303 340
f 304 341 305
f 305 348 306
f 306 349 307
f 307 350 308
f 308 351 314
f 314 352 312
f 312 353 315
f 301 339 302
f 301 309 342
f 299 334 309
f 302 338 303
f 325 323 347
f 323 31 347
f 315 354 316
f 316 355 317
f 317 356 318
f 318 357 319
f 319 358 320
f 320 359 321
f 321 360 329
f 327 365 328
f 326 328 366
f 326 148 32
f 329 362 330
f 330 363 331
f 331 364 327
f 298 336 335
f 300 337 336
f 310 344 337
f 311 345 344
f 322 343 345
f 324 346 343
f 325 347 346
f 304 340 341
f 305 341 348
f 306 348 349
f 307 349 350
f 308 350 351
f 314 351 352
f 312 352 353
f 315 353 354
f 302 339 338
f 301 342 339
f 309 334 342
f 303 338 340
f 299 335 334
f 347 31 147
f 316 354 355
f 317 355 356
f 318 356 357
f 319 357 358
f 320 358 359
f 321 359 360
f 329 360 362
f 327 364 365
f 328 365 366
f 326 366 361
f 326 361 148
f 330 362 363
f 331 363 364
f 367 43 44
f 368 47 43
f 368 43 367
f 368 45 47
f 43 47 50
f 50 47 48
f 369 48 46
f 369 370 50
f 370 371 50
f 372 44 49
f 367 44 373
f 372 373 44
f 372 374 373
f 372 375 374
f 372 376 375
f 372 377 376
f 372 378 377
f 372 379 378
f 372 380 379
f 372 381 380
f 372 382 381
f 372 383 382
f 372 384 383
f 372 385 384
f 384 385 386
f 386 385 387
f 387 385 388
f 389 390 385
f 390 391 385
f 391 392 385
f 392 393 385
f 394 385 395
f 396 395 385
f 388 385 397
f 397 385 394
f 393 398 385
f 396 385 398
f 369 50 48
f 371 399 50
f 399 400 50
f 389 51 50
f 400 401 50
f 401 389 50
f 389 385 51
f 372 49 402
f 372 402 385
f 385 161 51
f 402 49 156
f 385 402 403
f 385 403 161
f 404 162 158
f 404 158 405
f 405 159 164
f 402 156 406
f 407 156 163
f 407 408 156
f 408 409 156
f 409 410 156
f 410 411 156
f 411 406 156
f 412 407 163
f 402 406 413
f 402 413 414
f 402 414 415
f 402 415 416
f 402 416 417
f 402 417 418
f 402 418 419
f 402 419 420
f 402 420 421
f 402 421 422
f 402 422 423
f 412 163 160
f 405 164 424
f 402 425 426
f 402 423 425
f 402 426 403
f 427 403 428
f 428 403 429
f 429 403 430
f 430 403 431
f 432 403 426
f 431 403 433
f 432 433 403
f 405 158 159
f 424 164 403
f 424 403 434
f 434 403 435
f 435 403 436
f 403 164 161
f 436 403 427
f 368 367 407
f 367 373 408
f 373 374 409
f 374 375 410
f 375 376 411
f 376 377 406
f 377 378 413
f 368 160 45
f 378 379 414
f 379 380 415
f 380 381 416
f 381 382 417
f 382 383 418
f 369 46 404
f 369 404 370
f 370 405 371
f 371 424 399
f 399 434 400
f 400 435 401
f 389 427 390
f 390 428 391
f 396 398 433
f 392 430 393
f 391 429 392
f 393 431 398
f 401 436 389
f 383 384 419
f 384 386 420
f 386 387 421
f 387 388 422
f 388 397 423
f 394 395 426
f 397 394 425
f 396 432 395
f 367 408 407
f 373 409 408
f 374 410 409
f 375 411 410
f 376 406 411
f 377 413 406
f 378 414 413
f 368 412 160
f 368 407 412
f 379 415 414
f 380 416 415
f 381 417 416
f 382 418 417
f 404 46 162
f 370 404 405
f 371 405 424
f 399 424 434
f 400 434 435
f 401 435 436
f 389 436 427
f 390 427 428
f 391 428 429
f 398 431 433
f 396 433 432
f 392 429 430
f 393 430 431
f 383 419 418
f 384 420 419
f 386 421 420
f 387 422 421
f 388 423 422
f 397 425 423
f 394 426 425
f 395 432 426
f 437 211 213
f 437 213 60
f 437 60 61
f 438 61 62
f 439 61 438
f 439 438 440
f 440 438 441
f 441 438 442
f 442 438 443
f 211 65 212
f 444 65 211
f 437 444 211
f 444 63 65
f 212 65 67
f 67 65 66
f 445 66 64
f 445 67 66
f 445 446 67
f 446 447 67
f 447 448 67
f 448 449 67
f 450 68 67
f 437 61 439
f 443 438 451
f 451 438 452
f 452 438 453
f 453 438 454
f 454 438 455
f 455 438 456
f 438 457 456
f 457 458 459
f 459 458 460
f 438 458 457
f 449 461 67
f 461 450 67
f 450 458 68
f 462 458 463
f 462 464 458
f 465 458 466
f 460 458 467
f 467 458 468
f 468 458 465
f 469 466 458
f 469 458 470
f 470 458 464
f 450 471 458
f 471 463 458
f 438 62 472
f 438 472 458
f 458 130 68
f 472 62 132
f 458 472 473
f 458 473 130
f 474 475 132
f 475 476 132
f 476 477 132
f 477 478 132
f 478 472 132
f 479 132 134
f 479 474 132
f 480 134 129
f 479 134 480
f 478 481 472
f 481 482 472
f 482 483 472
f 483 484 472
f 484 485 472
f 485 486 472
f 472 486 487
f 472 487 488
f 472 488 489
f 472 489 490
f 472 491 492
f 472 490 493
f 472 493 491
f 472 492 473
f 494 133 135
f 494 135 495
f 495 135 496
f 496 135 473
f 496 473 497
f 497 473 498
f 498 473 499
f 473 135 130
f 500 501 473
f 500 473 502
f 503 473 492
f 503 504 473
f 504 502 473
f 499 473 505
f 505 473 506
f 506 473 501
f 439 440 475
f 440 441 476
f 441 442 477
f 444 129 63
f 437 479 444
f 437 439 474
f 442 443 478
f 443 451 481
f 451 452 482
f 452 453 483
f 453 454 484
f 454 455 485
f 455 456 486
f 445 64 494
f 445 494 446
f 469 470 504
f 462 463 501
f 462 500 464
f 470 464 502
f 456 457 487
f 457 459 488
f 459 460 489
f 460 467 490
f 467 468 493
f 468 465 491
f 465 466 492
f 469 503 466
f 446 495 447
f 447 496 448
f 448 497 449
f 449 498 461
f 461 499 450
f 450 505 471
f 471 506 463
f 440 476 475
f 441 477 476
f 444 480 129
f 444 479 480
f 437 474 479
f 439 475 474
f 442 478 477
f 443 481 478
f 451 482 481
f 452 483 482
f 453 484 483
f 454 485 484
f 455 486 485
f 494 64 133
f 463 506 501
f 469 504 503
f 462 501 500
f 464 500 502
f 470 502 504
f 456 487 486
f 457 488 487
f 459 489 488
f 460 490 489
f 467 493 490
f 468 491 493
f 465 492 491
f 466 503 492
f 446 494 495
f 447 495 496
f 448 496 497
f 449 497 498
f 461 498 499
f 450 499 505
f 471 505 506

